<?xml version="1.0" encoding="UTF-8" standalone="no"?>
<svg xmlns="http://www.w3.org/2000/svg" width="16" height="16" viewBox="0 0 16 16">
  <path d="M 8.18,2.007 a 5.999,5.999 0 0,0 -4.424,1.754 a 0.5,0.5 0 1,0 0.707,0.707 a 4.994,4.994 0 0,1 6.035,-0.793 a 4.983,4.983 0 0,1 2.485,4.322 L 11,7.997 l 2.5,3 l 2.5,-3 l -2.006,0 a 6,6 0 0,0 -2.996,-5.19 a 5.983,5.983 0 0,0 -2.818,-0.8 z m -5.68,2.99 l -2.5,3 l 2.004,0 a 6.014,6.014 0 0,0 1.469,3.938 a 6.003,6.003 0 0,0 8.771,0.305 a 0.500278,0.500278 0 1,0 -0.707,-0.708 a 4.998,4.998 0 0,1 -6.037,0.795 a 4.985,4.985 0 0,1 -2.484,-4.33 L 5,7.997 z" fill="#bebebe"/>
</svg>
