<?xml version="1.0" encoding="UTF-8" standalone="no"?>
<svg xmlns="http://www.w3.org/2000/svg" width="16" height="16" viewBox="0 0 16 16">
  <path d="M 8,0 c -4.412,0 -8,3.588 -8,8 s 3.588,8 8,8 s 8,-3.588 8,-8 s -3.588,-8 -8,-8 z m 0,1 c 3.872,0 7,3.128 7,7 s -3.128,7 -7,7 s -7,-3.128 -7,-7 s 3.128,-7 7,-7 z m -1.978,3.496 c -0.423,-0.032 -0.773,0.874 -0.772,2.002 c 0,2.67 1.5,2.67 1.5,0 c 0,-1.083 -0.322,-1.97 -0.729,-2.002 z m 4,0 c -0.423,-0.032 -0.773,0.874 -0.772,2.002 c 0,2.67 1.5,2.67 1.5,0 c 0,-1.083 -0.322,-1.97 -0.729,-2.002 z M 5.5,10 a 0.5,0.5 0 1,0 0,1 l 5,0 a 0.5,0.5 0 1,0 0,-1 z" fill="#bebebe"/>
</svg>
