<?xml version="1.0" encoding="UTF-8" standalone="no"?>
<svg xmlns="http://www.w3.org/2000/svg" width="16" height="16" viewBox="0 0 16 16">
  <path d="M 8,0 c -4.412,0 -8,3.588 -8,8 s 3.588,8 8,8 s 8,-3.588 8,-8 s -3.588,-8 -8,-8 z m 0,1 c 3.872,0 7,3.128 7,7 s -3.128,7 -7,7 s -7,-3.128 -7,-7 s 3.128,-7 7,-7 z m -3.328,2.57 l -0.516,0.86 l 1.784,1.07 l -1.784,1.07 l 0.516,0.86 l 3.215,-1.93 z m 6.984,0 l -3.215,1.93 l 3.215,1.93 l 0.516,-0.86 l -1.783,-1.07 l 1.783,-1.07 z m -5.703,4.522 l -0.578,0.816 s 0.448,0.332 0.668,0.88 c 0.22,0.546 0.286,1.271 -0.744,2.37 l 0.73,0.684 c 0.596,-0.636 0.913,-1.265 1.045,-1.842 l 2.18,0 c 0.132,0.577 0.449,1.206 1.045,1.842 l 0.73,-0.684 c -1.03,-1.099 -0.964,-1.824 -0.744,-2.37 c 0.22,-0.548 0.668,-0.88 0.668,-0.88 l -0.578,-0.816 s -0.677,0.47 -1.02,1.322 c -0.0699999999999,0.177 -0.119,0.376 -0.148,0.586 l -2.086,0 a 2.485,2.485 0 0,0 -0.148,-0.586 c -0.343,-0.853 -1.02,-1.322 -1.02,-1.322 z" fill="#bebebe"/>
</svg>
