<?xml version="1.0" encoding="UTF-8" standalone="no"?>
<svg xmlns="http://www.w3.org/2000/svg" width="16" height="16" viewBox="0 0 16 16">
  <path d="M 8,0 c -4.412,0 -8,3.588 -8,8 s 3.588,8 8,8 s 8,-3.588 8,-8 s -3.588,-8 -8,-8 z m 0,1 c 3.872,0 7,3.128 7,7 s -3.128,7 -7,7 s -7,-3.128 -7,-7 s 3.128,-7 7,-7 z m -1.488,1.146 c -1.026,0.035 -1.727,0.533 -2.1,1.053 c -0.427,0.595 -0.502,1.22 -0.502,1.22 l 0.992,0.126 s 0.056,-0.393 0.323,-0.764 c 0.266,-0.371 0.671,-0.718 1.65,-0.625 l 0.096,-0.994 a 3.564,3.564 0 0,0 -0.459,-0.015 z m 3.588,2.794 a 1.64,1.64 0 0,0 -0.317,0.043 a 1.422,1.422 0 0,0 -0.963,0.804 c -0.18,0.41 -0.191,0.903 -0.0530000000001,1.446 l 0.969,-0.25 c -0.0989999999999,-0.386 -0.066,-0.646 0,-0.791 c 0.0640000000001,-0.145 0.14,-0.202 0.28,-0.235 c 0.277,-0.065 0.9,0.106 1.476,0.858 l 0.793,-0.61 c -0.644,-0.84 -1.438,-1.296 -2.184,-1.265 z m -4.121,-0.444 c -0.423,-0.032 -0.772,0.873 -0.772,2 c 0,2.663 1.5,2.663 1.5,0 c 0,-1.082 -0.323,-1.969 -0.729,-2 z m 5.515,4.662 l -0.988,0.149 s 0.068,0.55 -0.125,1.043 c -0.193,0.491 -0.521,0.942 -1.774,0.882 l -0.047,1 c 1.562,0.075 2.441,-0.725 2.752,-1.517 c 0.312,-0.792 0.182,-1.557 0.182,-1.557 z" fill="#bebebe"/>
</svg>
