<?xml version="1.0" encoding="UTF-8" standalone="no"?>
<svg xmlns="http://www.w3.org/2000/svg" width="16" height="16" viewBox="0 0 16 16">
  <path d="M 8,0 c -4.412,0 -8,3.588 -8,8 s 3.588,8 8,8 s 8,-3.588 8,-8 c 0,-0.691 -0.096,-1.36 -0.262,-2 l -1.031,0 a 6.992,6.992 0 0,1 -6.707,9 c -3.872,0 -7,-3.128 -7,-7 a 6.992,6.992 0 0,1 10,-6.32 l 0,-1.092 a 7.952,7.952 0 0,0 -3,-0.588 z m 4,1 l 0,1 l 1.7,0 l -1.7,2 l 0,1 l 3,0 l 0,-1 l -1.7,0 l 1.7,-2 l 0,-1 z m -5.477,5.934 a 0.47,0.47 0 0,0 -0.46,0.328 s -0.191,0.675 -1.083,0.675 c -0.445,0 -0.644,-0.16 -0.787,-0.326 c -0.142,-0.165 -0.18,-0.306 -0.18,-0.306 c -0.176,-0.644 -1.141,-0.378 -0.964,0.265 c 0,0 0.0999999999999,0.359 0.389,0.694 c 0.288,0.335 0.813,0.674 1.542,0.674 c 1.46,0 2.02,-1.325 2.02,-1.325 c 0.147,-0.39 -0.165,-0.674 -0.477,-0.68 z m 6,0 a 0.47,0.47 0 0,0 -0.46,0.328 s -0.191,0.675 -1.083,0.675 c -0.445,0 -0.644,-0.16 -0.787,-0.326 c -0.142,-0.165 -0.18,-0.306 -0.18,-0.306 c -0.176,-0.644 -1.141,-0.378 -0.964,0.265 c 0,0 0.0999999999999,0.359 0.389,0.694 c 0.288,0.335 0.813,0.674 1.542,0.674 c 1.46,0 2.02,-1.325 2.02,-1.325 c 0.147,-0.39 -0.165,-0.674 -0.477,-0.68 z M 5.5,11 a 0.5,0.5 0 1,0 0,1 l 5,0 a 0.5,0.5 0 1,0 0,-1 z" fill="#bebebe"/>
</svg>
