<?xml version="1.0" encoding="UTF-8" standalone="no"?>
<svg xmlns="http://www.w3.org/2000/svg" width="16" height="16" viewBox="0 0 16 16">
  <path d="M 8,0 c -4.412,0 -8,3.588 -8,8 s 3.588,8 8,8 s 8,-3.588 8,-8 s -3.588,-8 -8,-8 z m 0,1 c 3.872,0 7,3.128 7,7 s -3.128,7 -7,7 s -7,-3.128 -7,-7 s 3.128,-7 7,-7 z m -2.022,3.496 c -0.406,0.031 -0.729,0.919 -0.728,2.002 c 0,2.67 1.5,2.67 1.5,0 c 0,-1.128 -0.349,-2.034 -0.771,-2.002 z m 4,0 c -0.406,0.031 -0.729,0.919 -0.728,2.002 c 0,2.67 1.5,2.67 1.5,0 c 0,-1.128 -0.349,-2.034 -0.771,-2.002 z M 8,10.004 c -1.326,0.001 -2.063,0.558 -3,1.496 l 0.707,0.707 c 0.75,-0.75 1.233,-1.202 2.293,-1.203 c 1.06,0.001 1.544,0.453 2.293,1.203 l 0.707,-0.707 c -0.937,-0.938 -1.674,-1.495 -3,-1.496 z" fill="#bebebe"/>
</svg>
