<?xml version="1.0" encoding="UTF-8" standalone="no"?>
<svg xmlns="http://www.w3.org/2000/svg" width="16" height="16" viewBox="0 0 16 16">
  <path d="M 1.973,0 s -0.299,1.476 -0.0309999999999,2.791 A 7.95,7.95 0 0,0 0,8 c 0,4.412 3.588,8 8,8 s 8,-3.588 8,-8 c 0,-2.014 -0.752,-3.85 -1.984,-5.258 c 0.126,-0.657 0.117,-1.328 0.0719999999999,-1.853 l 0,-0.006 l 0,-0.01 a 10.263,10.263 0 0,0 -0.115,-0.873 s -0.158,0.187 -0.375,0.41 c -0.13,0.135 -0.3,0.29 -0.49,0.453 c -0.0139999999999,0.011 -0.02,0.02 -0.0340000000001,0.032 a 6.09,6.09 0 0,1 -0.63,0.457 A 7.955,7.955 0 0,0 8,0 a 7.957,7.957 0 0,0 -4.477,1.371 a 5.92,5.92 0 0,1 -0.626,-0.453 a 6.914,6.914 0 0,1 -0.575,-0.531 c -0.19,-0.2 -0.35,-0.387 -0.35,-0.387 z m 6.027,1 a 6.98,6.98 0 0,1 3.36,0.855 a 3.122,3.122 0 0,1 -0.887,0.145 c 0,0.991 1.505,2.5 2.5,2.5 a 1.93,1.93 0 0,0 0.648,-0.666 A 6.964,6.964 0 0,1 15,8 c 0,3.872 -3.128,7 -7,7 s -7,-3.128 -7,-7 c 0,-1.546 0.504,-2.968 1.35,-4.125 c 0.16,0.25 0.36,0.467 0.623,0.625 c 0.995,0 2.5,-1.509 2.5,-2.5 a 3.11,3.11 0 0,1 -0.852,-0.133 A 6.979,6.979 0 0,1 8,1 z m -3.02,4.037 c -0.729,0 -1.254,0.339 -1.543,0.674 a 2.01,2.01 0 0,0 -0.388,0.693 c -0.177,0.644 0.788,0.91 0.965,0.266 c 0,0 0.037,-0.142 0.18,-0.307 c 0.142,-0.165 0.34,-0.326 0.786,-0.326 c 0.892,0 1.082,0.676 1.082,0.676 c 0.234,0.626 1.174,0.274 0.938,-0.352 c 0,0 -0.56,-1.324 -2.02,-1.324 z m 6,0 c -0.729,0 -1.254,0.339 -1.543,0.674 a 2.01,2.01 0 0,0 -0.388,0.693 c -0.177,0.644 0.788,0.91 0.965,0.266 c 0,0 0.037,-0.142 0.18,-0.307 c 0.142,-0.165 0.34,-0.326 0.786,-0.326 c 0.892,0 1.082,0.676 1.082,0.676 c 0.234,0.626 1.174,0.274 0.938,-0.352 c 0,0 -0.56,-1.324 -2.02,-1.324 z M 3.096,8 s -0.0419999999999,0.633 -0.0650000000001,0.895 c 0,2.826 2.236,5.142 5,5.142 s 5,-2.316 5,-5.142 c 0,-0.175 -0.0619999999999,-0.895 -0.0619999999999,-0.895 z m 0.963,1.037 l 7.945,0 a 4.31,4.31 0 0,1 -0.19,1.076 a 6.94,6.94 0 0,1 -3.681,0.992 c -2.211,-0.018 -3.885,-0.996 -3.885,-0.996 c -0.085,-0.17 -0.176,-0.696 -0.19,-1.072 z m 0.728,2.36 c 1.331,0.508 3.715,1.084 6.26,0.07 c -0.0119999999999,0.015 -0.027,0.026 -0.04,0.04 c 0.04,-0.014 0.086,-0.024 0.126,-0.04 c -0.727,0.952 -1.81,1.533 -3.133,1.533 c -1.324,0 -2.489,-0.61 -3.213,-1.604 z" fill="#bebebe"/>
</svg>
