<?xml version="1.0" encoding="UTF-8" standalone="no"?>
<svg xmlns="http://www.w3.org/2000/svg" width="16" height="16" viewBox="0 0 16 16">
  <path d="M 8,0 c -4.412,0 -8,3.588 -8,8 s 3.588,8 8,8 s 8,-3.588 8,-8 s -3.588,-8 -8,-8 z m 0,1 c 3.872,0 7,3.128 7,7 s -3.128,7 -7,7 s -7,-3.128 -7,-7 s 3.128,-7 7,-7 z m -2.022,3.496 c -0.406,0.031 -0.729,0.919 -0.728,2.002 c 0,2.67 1.5,2.67 1.5,0 c 0,-1.128 -0.349,-2.034 -0.771,-2.002 z m 4,0 c -0.406,0.031 -0.729,0.919 -0.728,2.002 c 0,2.67 1.5,2.67 1.5,0 c 0,-1.128 -0.349,-2.034 -0.771,-2.002 z M 12,10 c -2.608,0 -4.317,0.516 -5.383,1.055 a 5.42,5.42 0 0,0 -1.148,0.757 a 2.794,2.794 0 0,0 -0.377,0.399 l 0.816,0.578 s 0.0419999999999,-0.066 0.223,-0.227 c 0.18,-0.16 0.481,-0.386 0.937,-0.617 c 0.913,-0.46 2.455,-0.945 4.932,-0.945 z" fill="#bebebe"/>
</svg>
