<?xml version="1.0" encoding="UTF-8" standalone="no"?>
<svg xmlns="http://www.w3.org/2000/svg" width="16" height="16" viewBox="0 0 16 16">
  <path d="M 8,0 c -4.412,0 -8,3.588 -8,8 s 3.588,8 8,8 s 8,-3.588 8,-8 s -3.588,-8 -8,-8 z m 0,1 c 3.872,0 7,3.128 7,7 s -3.128,7 -7,7 s -7,-3.128 -7,-7 s 3.128,-7 7,-7 z m -2.022,2.496 c -0.406,0.031 -0.729,0.919 -0.728,2.002 c 0,2.67 1.5,2.67 1.5,0 c 0,-1.128 -0.349,-2.034 -0.771,-2.002 z m 4,0 c -0.406,0.031 -0.729,0.919 -0.728,2.002 c 0,2.67 1.5,2.67 1.5,0 c 0,-1.128 -0.349,-2.034 -0.771,-2.002 z m 0.305,6.475 a 1.43,1.43 0 0,0 -0.863,0.232 c -0.586,0.383 -0.86,0.797 -1.3,0.797 c -0.223,0 -0.36,-0.074 -0.55,-0.22 c -0.19,-0.148 -0.392,-0.373 -0.697,-0.567 a 1.489,1.489 0 0,0 -1.236,-0.164 c -0.468,0.15 -0.934,0.494 -1.526,1.101 l 0.715,0.7 c 0.535,-0.549 0.912,-0.782 1.117,-0.848 c 0.206,-0.066 0.245,-0.042 0.393,0.053 c 0.148,0.094 0.346,0.301 0.623,0.515 c 0.276,0.214 0.668,0.43 1.16,0.43 c 0.987,0 1.538,-0.758 1.848,-0.961 c 0.155,-0.101 0.16,-0.11 0.289,-0.06 c 0.13,0.05 0.423,0.266 0.826,0.816 l 0.807,-0.59 c -0.457,-0.622 -0.834,-0.99 -1.274,-1.16 a 1.156,1.156 0 0,0 -0.332,-0.074 z" fill="#bebebe"/>
</svg>
