<?xml version="1.0" encoding="UTF-8" standalone="no"?>
<svg xmlns="http://www.w3.org/2000/svg" width="16" height="16" viewBox="0 0 16 16">
  <path d="M 8,0 c -4.412,0 -8,3.588 -8,8 s 3.588,8 8,8 s 8,-3.588 8,-8 s -3.588,-8 -8,-8 z m 0,1 c 3.872,0 7,3.128 7,7 s -3.128,7 -7,7 s -7,-3.128 -7,-7 s 3.128,-7 7,-7 z m -1.978,2.496 c -0.423,-0.032 -0.772,0.874 -0.772,2.002 c 0,2.67 1.5,2.67 1.5,0 c 0,-1.083 -0.322,-1.97 -0.728,-2.002 z m 4,0 c -0.423,-0.032 -0.772,0.874 -0.772,2.002 c 0,2.67 1.5,2.67 1.5,0 c 0,-1.083 -0.322,-1.97 -0.728,-2.002 z m 0.334,5.502 c -0.323,-0.00700000000001 -0.653,0.002 -0.979,0.002 l -3.877,0 a 0.5,0.5 0 1,0 0,1 l 1.5,0 c 0.575,0 0.728,0.25 0.863,0.584 c 0.316,1.248 0.469,2.098 2.104,2.252 c 1.158,0.11 1.844,-0.265 2.18,-0.744 c 0.334,-0.477 0.324,-0.979 0.324,-0.985 c 0,-1.281 -0.852,-1.948 -1.188,-2.02 a 5.02,5.02 0 0,0 -0.927,-0.089 z m -0.02,1 c 0.29,0.006 0.544,0.027 0.74,0.068 c -0.285,-0.06 0,0.004 0.13,0.182 c 0.136,0.178 0.264,0.44 0.264,0.86 l 0,0.017 c 0,0.019 -0.00999999999999,0.05 -0.0160000000001,0.092 a 0.827,0.827 0 0,1 -0.127,0.3 l 0,0.003 c -0.107,0.154 -0.357,0.406 -1.265,0.32 c -0.65,-0.061 -0.725,-0.161 -0.832,-0.309 c -0.107,-0.147 -0.235,-0.552 -0.397,-1.191 l -0.0160000000001,-0.068 l -0.027,-0.065 c -0.0219999999999,-0.053 -0.112,-0.141 -0.142,-0.207 l 0.73,0 c 0.343,0 0.669,-0.008 0.959,-0.002 z" fill="#bebebe"/>
</svg>
