<?xml version="1.0" encoding="UTF-8" standalone="no"?>
<svg xmlns="http://www.w3.org/2000/svg" width="16" height="16" viewBox="0 0 16 16">
  <path d="M 8,0 c -1.53,0 -2.955,0.438 -4.172,1.186 c -0.0139999999999,0.003 -0.03,0.003 -0.0450000000001,0.006 c -0.785,0.177 -1.353,0.56 -1.353,0.56 l 0.214,0.32 A 7.973,7.973 0 0,0 0,8 c 0,4.412 3.588,8 8,8 s 8,-3.588 8,-8 a 7.974,7.974 0 0,0 -2.686,-5.963 l 0.192,-0.285 s -0.544,-0.36 -1.297,-0.543 A 7.942,7.942 0 0,0 8,0 z m 0,1 c 0.773,0 1.514,0.129 2.209,0.36 c -0.28,0.124 -0.554,0.297 -0.81,0.544 l 0.695,0.721 c 0.577,-0.558 1.193,-0.584 1.758,-0.47 a 7.02,7.02 0 0,1 1.088,0.882 a 3.277,3.277 0 0,0 -0.94,-0.144 c -0.736,0 -1.479,0.241 -2.05,0.75 c -0.573,0.508 -0.95,1.291 -0.95,2.25 c 0,0.958 0.377,1.74 0.95,2.248 c 0.571,0.508 1.314,0.752 2.05,0.752 c 0.736,0 1.479,-0.244 2.05,-0.752 c 0.392,-0.348 0.68,-0.83 0.83,-1.403 c 0.075,0.41 0.12,0.83 0.12,1.262 c 0,3.872 -3.128,7 -7,7 s -7,-3.128 -7,-7 c 0,-0.432 0.0450000000001,-0.852 0.12,-1.262 c 0.15,0.572 0.438,1.055 0.83,1.403 c 0.571,0.508 1.314,0.752 2.05,0.752 c 0.736,0 1.479,-0.244 2.05,-0.752 c 0.573,-0.509 0.95,-1.29 0.95,-2.248 c 0,-0.959 -0.377,-1.742 -0.95,-2.25 c -0.571,-0.509 -1.314,-0.75 -2.05,-0.75 c -0.317,0 -0.634,0.052 -0.94,0.144 a 7.02,7.02 0 0,1 1.11,-0.896 c 0.541,-0.094 1.123,-0.046 1.672,0.484 l 0.695,-0.72 a 2.777,2.777 0 0,0 -0.78,-0.532 A 6.996,6.996 0 0,1 8,1 z m -4,2.893 c 0.514,0 1.021,0.173 1.387,0.498 c 0.365,0.325 0.613,0.793 0.613,1.502 c 0,0.708 -0.248,1.177 -0.613,1.502 c -0.366,0.325 -0.873,0.498 -1.387,0.498 s -1.021,-0.173 -1.387,-0.498 c -0.365,-0.325 -0.613,-0.794 -0.613,-1.502 c 0,-0.709 0.248,-1.177 0.613,-1.502 c 0.366,-0.325 0.873,-0.498 1.387,-0.498 z m 8,0 c 0.514,0 1.021,0.173 1.387,0.498 c 0.365,0.325 0.613,0.793 0.613,1.502 c 0,0.708 -0.248,1.177 -0.613,1.502 c -0.366,0.325 -0.873,0.498 -1.387,0.498 s -1.021,-0.173 -1.387,-0.498 c -0.365,-0.325 -0.613,-0.794 -0.613,-1.502 c 0,-0.709 0.248,-1.177 0.613,-1.502 c 0.366,-0.325 0.873,-0.498 1.387,-0.498 z m -7.975,1.125 a 0.875,0.875 0 0,0 -0.9,0.875 a 0.875,0.875 0 0,0 1.75,0 a 0.875,0.875 0 0,0 -0.85,-0.875 z m 8,0 a 0.875,0.875 0 0,0 -0.9,0.875 a 0.875,0.875 0 0,0 1.75,0 a 0.875,0.875 0 0,0 -0.85,-0.875 z M 8,9 a 2,2 0 0,0 0,4 a 2,2 0 0,0 0,-4 z" fill="#bebebe"/>
</svg>
