<?xml version="1.0" encoding="UTF-8" standalone="no"?>
<svg xmlns="http://www.w3.org/2000/svg" width="16" height="16" viewBox="0 0 16 16">
  <path d="M 8,0 c -4.412,0 -8,3.588 -8,8 s 3.588,8 8,8 s 8,-3.588 8,-8 s -3.588,-8 -8,-8 z m 0,1 c 3.872,0 7,3.128 7,7 s -3.128,7 -7,7 s -7,-3.128 -7,-7 s 3.128,-7 7,-7 z m -3.02,4.031 c -0.729,0 -1.254,0.339 -1.543,0.674 c -0.288,0.335 -0.388,0.693 -0.388,0.693 c -0.177,0.644 0.788,0.91 0.965,0.266 c 0,0 0.037,-0.142 0.18,-0.307 c 0.142,-0.165 0.34,-0.326 0.786,-0.326 c 0.892,0 1.082,0.676 1.082,0.676 c 0.234,0.626 1.174,0.274 0.938,-0.352 c 0,0 -0.56,-1.324 -2.02,-1.324 z m 6,0 c -0.729,0 -1.254,0.339 -1.543,0.674 c -0.288,0.335 -0.388,0.693 -0.388,0.693 c -0.177,0.644 0.788,0.91 0.965,0.266 c 0,0 0.037,-0.142 0.18,-0.307 c 0.142,-0.165 0.34,-0.326 0.786,-0.326 c 0.892,0 1.082,0.676 1.082,0.676 c 0.234,0.626 1.174,0.274 0.938,-0.352 c 0,0 -0.56,-1.324 -2.02,-1.324 z m -3.468,3.756 c -0.238,-0.018 -0.479,0.101 -0.668,0.244 a 12.098,12.098 0 0,1 -2.026,1.453 c 0.107,0.143 0.403,0.212 0.565,0.348 c 0.892,0.52 1.303,1.578 2.224,2.06 c 0.204,0.1 0.514,0.278 0.696,0.233 c 0.326,0.04 0.655,0.043 0.982,0.014 c 0.607,-0.088 1.13,-0.477 1.533,-0.922 c 0.372,-0.376 0.652,-0.842 1.067,-1.174 c 0.255,-0.231 0.698,-0.355 0.9,-0.564 c -0.428,-0.314 -0.907,-0.555 -1.33,-0.877 c -0.426,-0.28 -0.749,-0.76 -1.162,-0.776 c -0.413,-0.015 -0.666,0.185 -0.963,0.258 c -0.533,0.191 -1.099,0.01 -1.584,-0.229 a 0.591,0.591 0 0,0 -0.234,-0.068 z m 0.76,1.682 c 0.38,0.111 0.744,0.03 1.119,0.017 c 0.24,0.138 0.582,0.248 0.777,0.38 c -0.33,0.118 -0.637,0.293 -0.957,0.435 c -0.355,0.105 -0.768,0.09 -1.084,-0.121 c -0.2,-0.134 -0.511,-0.206 -0.668,-0.336 c 0.257,-0.118 0.541,-0.26 0.812,-0.375 z" fill="#bebebe"/>
</svg>
