<?xml version="1.0" encoding="UTF-8" standalone="no"?>
<svg xmlns="http://www.w3.org/2000/svg" width="16" height="16" viewBox="0 0 16 16">
  <path d="M 8,0 c -1.826,0 -3.478,0.167 -4.709,0.451 c -0.615,0.142 -1.123,0.31 -1.52,0.526 a 1.845,1.845 0 0,0 -0.513,0.388 a 0.975,0.975 0 0,0 -0.258,0.635 c 0,0.25 0.115,0.474 0.258,0.635 c 0.142,0.16 0.315,0.28 0.514,0.388 c 0.396,0.217 0.904,0.384 1.519,0.526 c 1.23,0.284 2.883,0.451 4.709,0.451 c 1.826,0 3.478,-0.167 4.709,-0.451 c 0.615,-0.142 1.123,-0.31 1.52,-0.526 c 0.198,-0.108 0.37,-0.227 0.513,-0.388 A 0.975,0.975 0 0,0 15,2 a 0.975,0.975 0 0,0 -0.258,-0.635 a 1.845,1.845 0 0,0 -0.514,-0.388 c -0.396,-0.217 -0.904,-0.384 -1.519,-0.526 c -1.23,-0.284 -2.883,-0.451 -4.709,-0.451 z m 0,1 c 1.764,0 3.362,0.167 4.484,0.426 c 0.561,0.13 1.004,0.287 1.266,0.43 c 0.109,0.059 0.163,0.107 0.203,0.144 a 0.897,0.897 0 0,1 -0.203,0.145 c -0.262,0.142 -0.705,0.3 -1.266,0.43 c -1.122,0.258 -2.72,0.425 -4.484,0.425 c -1.764,0 -3.362,-0.167 -4.484,-0.426 c -0.561,-0.13 -1.004,-0.287 -1.266,-0.43 a 0.902,0.902 0 0,1 -0.203,-0.144 a 0.897,0.897 0 0,1 0.203,-0.145 c 0.262,-0.142 0.705,-0.3 1.266,-0.43 c 1.122,-0.258 2.72,-0.425 4.484,-0.425 z m -6.695,2.637 A 7.939,7.939 0 0,0 0,8 c 0,4.412 3.588,8 8,8 s 8,-3.588 8,-8 c 0,-1.61 -0.483,-3.104 -1.305,-4.36 a 6.948,6.948 0 0,1 -0.912,0.43 A 6.992,6.992 0 0,1 8,15 c -3.872,0 -7,-3.128 -7,-7 c 0,-1.462 0.454,-2.81 1.219,-3.93 a 6.88,6.88 0 0,1 -0.914,-0.433 z m 4.673,1.861 c -0.406,0.031 -0.729,0.919 -0.728,2.002 c 0,2.67 1.5,2.67 1.5,0 c 0,-1.128 -0.349,-2.034 -0.771,-2.002 z m 4,0 c -0.406,0.031 -0.729,0.919 -0.728,2.002 c 0,2.67 1.5,2.67 1.5,0 c 0,-1.128 -0.349,-2.034 -0.771,-2.002 z m -4.804,5.332 l -0.707,0.707 a 4.999,4.999 0 0,0 3.533,1.467 a 4.999,4.999 0 0,0 3.533,-1.467 l -0.707,-0.707 a 4,4 0 0,1 -2.826,1.174 a 4,4 0 0,1 -2.826,-1.174 z" fill="#bebebe"/>
</svg>
