<?xml version="1.0" encoding="UTF-8" standalone="no"?>
<svg xmlns="http://www.w3.org/2000/svg" width="16" height="16" viewBox="0 0 16 16">
  <path d="M 8,0 c -4.412,0 -8,3.588 -8,8 s 3.588,8 8,8 s 8,-3.588 8,-8 s -3.588,-8 -8,-8 z m 0,1 c 3.872,0 7,3.128 7,7 s -3.128,7 -7,7 s -7,-3.128 -7,-7 s 3.128,-7 7,-7 z m -3.992,3.475 l -0.516,0.859 l 1.783,1.07 l -1.783,1.07 l 0.516,0.86 l 3.215,-1.93 z m 7.984,0 l -3.215,1.93 l 3.215,1.929 l 0.516,-0.86 l -1.783,-1.07 l 1.783,-1.07 z M 8,10.004 a 5,5 0 0,0 -3.533,1.467 l 0.707,0.707 a 4,4 0 0,1 2.826,-1.174 a 4,4 0 0,1 2.826,1.174 l 0.707,-0.707 a 4.999,4.999 0 0,0 -3.533,-1.467 z" fill="#bebebe"/>
</svg>
