<?xml version="1.0" encoding="UTF-8" standalone="no"?>
<svg xmlns="http://www.w3.org/2000/svg" width="16" height="16" viewBox="0 0 16 16">
  <path d="M 8,0 c -4.412,0 -8,3.588 -8,8 s 3.588,8 8,8 s 8,-3.588 8,-8 s -3.588,-8 -8,-8 z m 0,1 c 3.872,0 7,3.128 7,7 s -3.128,7 -7,7 s -7,-3.128 -7,-7 s 3.128,-7 7,-7 z m -2,5.012 c -2.5,0 -4,1 -1,1 a 1,1 0 1,0 1,-1 z m 5,0 c -2.5,0 -4,1 -1,1 a 1,1 0 1,0 1,-1 z m 0.738,3.668 s -1.171,1.293 -2.633,1.328 c -1.719,0.04 -3.105,-0.008 -3.105,-0.008 l -0.0350000000001,1 s 1.413,0.05 3.164,0.008 c 2.01,-0.048 3.365,-1.672 3.365,-1.672 z" fill="#bebebe"/>
</svg>
