<?xml version="1.0" encoding="UTF-8" standalone="no"?>
<svg xmlns="http://www.w3.org/2000/svg" width="16" height="16" viewBox="0 0 16 16">
  <path d="M 1,3 c -0.554,0 -1,2.23 -1,5 s 0.446,5 1,5 l 12,0 c 0.412,0 0.76,-1.235 0.915,-3 l 1.583,0 c 0.278,0 0.503,-0.892 0.503,-2 s -0.225,-2 -0.503,-2 l -1.583,0 c -0.155,-1.765 -0.503,-3 -0.915,-3 z m 0.512,1 l 10.977,0 c 0.283,0 0.512,1.784 0.512,4 s -0.229,4 -0.512,4 l -10.977,0 c -0.283,0 -0.512,-1.784 -0.512,-4 s 0.229,-4 0.512,-4 z m 5.488,8 l 3,-5 l -3,0 l 0,-3 l -3,5 l 3,0 z m 6.96,-5 l 0.931,0 c 0.0609999999999,0 0.11,0.446 0.11,1 s -0.05,1 -0.11,1 l -0.932,0 c 0.0150000000001,-0.334 0.0419999999999,-0.645 0.0419999999999,-1 s -0.028,-0.666 -0.0419999999999,-1 z" fill="#bebebe"/>
  <path d="M 2.254,5 c -0.14,0 -0.254,1.338 -0.254,3 s 0.114,3 0.254,3 l 3.748,0 l 0,-1.002 l -2.002,0 a 0.997,0.997 0 0,1 -0.855,-1.512 l 2.092,-3.486 z m 5.744,0 l 0,1.002 l 2.002,0 a 0.997,0.997 0 0,1 0.856,1.512 L 8.764,11 l 2.983,0 c 0.14,0 0.254,-1.338 0.254,-3 s -0.114,-3 -0.254,-3 z" fill="#bebebe"/>
</svg>
