<?xml version="1.0" encoding="UTF-8" standalone="no"?>
<svg xmlns="http://www.w3.org/2000/svg" width="48" height="48" viewBox="0 0 48 48">
  <path d="M 24,8 c -2.77,0 -5,2.198 -5,4.929 l 0,13.144 c 0,2.73 2.23,4.928 5,4.928 s 5,-2.198 5,-4.928 l 0,-13.144 c 0,-2.73 -2.23,-4.928 -5,-4.928 z m -11,11 l 0,2 l 2,0 l 0,5 c 0,4.295 2.988,7.842 7,8.75 L 22,38 l -2,0 l 0,2 l 8,0 l 0,-2 l -2,0 l 0,-3.25 c 4.012,-0.908 7,-4.455 7,-8.75 l 0,-5 l 2,0 l 0,-2 l -4,0 l 0,7 c 0,3.879 -3.122,7 -7,7 s -7,-3.121 -7,-7 l 0,-7 z" fill="#bebebe"/>
</svg>
