<?xml version="1.0" encoding="UTF-8" standalone="no"?>
<svg xmlns="http://www.w3.org/2000/svg" width="16" height="16" viewBox="0 0 16 16">
  <path d="M 15,8 c 0,-3.225 -1.205,-5.982 -2.946,-7.25 l -1.155,1.04 c 1.5,1.062 2.542,3.453 2.542,6.21 s -1.043,5.148 -2.542,6.21 l 1.155,1.04 c 1.741,-1.268 2.946,-4.025 2.946,-7.25 z" fill="#bebebe"/>
  <path d="M 11.939,8 c 0,-2.18 -0.83,-4.085 -2.08,-5.285 l -1.069,0.953 c 0.966,1.026 1.589,2.582 1.589,4.332 s -0.623,3.306 -1.589,4.332 l 1.07,0.953 c 1.25,-1.2 2.079,-3.104 2.079,-5.285 z" fill="#bebebe"/>
  <path d="M 8.993,8 c 0,-1.326 -0.44,-2.542 -1.156,-3.495 l -1.097,0.982 a 4.9,4.9 0 0,1 0,5.026 l 1.097,0.982 a 5.814,5.814 0 0,0 1.156,-3.495 z M 0,6 l 0,4 l 1.652,0 l 3.348,3.37 L 5,2.63 l -3.348,3.37 z" fill="#bebebe"/>
</svg>
