<?xml version="1.0" encoding="UTF-8" standalone="no"?>
<svg xmlns="http://www.w3.org/2000/svg" width="16" height="16" viewBox="0 0 16 16">
  <path d="M 7.5,1 c -0.277,0 -0.5,0.223 -0.5,0.5 l 0,4.875 l -1.719,-1.5 c -0.312,-0.273 -0.757,-0.22 -1.03,0.094 a 0.753,0.753 0 0,0 0.062,1.062 l 2.25,1.969 l -2.25,1.969 a 0.753,0.753 0 0,0 -0.063,1.062 c 0.274,0.313 0.719,0.367 1.031,0.094 l 1.72,-1.5 l 0,4.875 c 0,0.277 0.222,0.5 0.5,0.5 c 0.282,0 0.437,-0.02 0.655,-0.188 l 3.532,-3.156 a 0.78,0.78 0 0,0 0.218,-0.375 a 0.745,0.745 0 0,0 0.032,-0.281 a 0.723,0.723 0 0,0 -0.032,-0.156 a 0.78,0.78 0 0,0 -0.218,-0.375 l -2.813,-2.47 l 2.813,-2.468 a 0.78,0.78 0 0,0 0.218,-0.375 a 0.712,0.712 0 0,0 0,-0.437 a 0.78,0.78 0 0,0 -0.218,-0.375 l -3.532,-3.157 c -0.199,-0.16 -0.427,-0.187 -0.656,-0.187 z m 0.5,2.063 l 2.094,1.875 L 8,6.75 z m 0,6.187 l 2.094,1.813 l -2.094,1.875 z" fill="#bebebe"/>
</svg>
