<?xml version="1.0" encoding="UTF-8" standalone="no"?>
<svg xmlns="http://www.w3.org/2000/svg" width="16" height="16" viewBox="0 0 16 16">
  <path d="M 0.998,5 c -0.553,0 -0.998,0.523 -0.998,1.156 l 0,4.563 c 0,0.633 0.416,1.281 0.968,1.281 l 1,0 c 0,0.633 0.475,1 1.028,1 l 0.996,0 c 0.553,0 0.976,-0.367 0.976,-1 l 5.989,0 c 0,0.633 0.466,1 1.02,1 l 0.993,0 c 0.553,0 0.998,-0.367 0.998,-1 l 1.002,0 c 0.553,0 0.998,-0.648 0.998,-1.281 l 0,-4.563 c 0,-0.633 -0.445,-1.156 -0.998,-1.156 z m 0.499,1.192 c 0.276,0 0.499,0.927 0.499,2.308 c 0,1.38 -0.223,2.238 -0.5,2.238 c -0.275,0 -0.498,-0.857 -0.498,-2.238 c 0,-1.38 0.223,-2.308 0.499,-2.308 z m 1.996,0 c 0.276,0 0.499,1.12 0.499,2.5 s -0.258,2.04 -0.534,2.04 c -0.275,0 -0.464,-0.851 -0.464,-2.232 c 0,-1.38 0.223,-2.308 0.499,-2.308 z m 1.961,0 c 0.276,0 0.534,0.927 0.534,2.308 c 0,1.38 -0.223,2.233 -0.499,2.233 s -0.499,-0.852 -0.499,-2.233 c 0,-1.38 0.189,-2.308 0.464,-2.308 z m 7.021,-0.192 a 2.498,2.498 0 0,1 2.495,2.5 c 0,1.38 -1.117,2.5 -2.495,2.5 a 2.498,2.498 0 0,1 -2.495,-2.5 c 0,-1.38 1.117,-2.5 2.495,-2.5 z" fill="#bebebe"/>
  <path d="M 13.968,8.5 A 1.5,1.5 0 0,1 12.468,10 A 1.5,1.5 0 0,1 10.968,8.5 A 1.5,1.5 0 0,1 12.468,7 A 1.5,1.5 0 0,1 13.968,8.5 Z" fill="#bebebe"/>
</svg>
