<?xml version="1.0" encoding="UTF-8" standalone="no"?>
<svg xmlns="http://www.w3.org/2000/svg" width="16" height="16" viewBox="0 0 16 16">
  <path d="M 7.68,0.002 a 8.481,8.481 0 0,0 -5.683,2.017 a 0.500137,0.500137 0 0,0 0.648,0.762 a 7.493,7.493 0 0,1 9.948,0.212 a 0.5,0.5 0 1,0 0.68,-0.733 a 8.48,8.48 0 0,0 -5.592,-2.258 z m -0.18,1.996 a 6.5,6.5 0 0,0 -6.5,6.47 a 0.5,0.5 0 0,0 0,0.025 a 0.5,0.5 0 0,0 0,0.005 a 0.5,0.5 0 0,0 0,0.003 a 0.5,0.5 0 0,0 0,0.003 l 0,0.01 a 0.5,0.5 0 0,0 0,0.023 c 0,1.284 0.237,2.558 0.699,3.756 a 0.500022,0.500022 0 1,0 0.933,-0.36 a 9.45,9.45 0 0,1 -0.633,-3.426 a 0.5,0.5 0 0,0 0,-0.009 a 5.5,5.5 0 0,1 5.5,-5.5 a 5.5,5.5 0 0,1 5.5,5.5 a 1.5,1.5 0 0,1 -1.5,1.5 a 1.5,1.5 0 0,1 -1.5,-1.5 a 2.5,2.5 0 0,0 -2.5,-2.5 a 2.5,2.5 0 0,0 -2.499,2.47 a 2.5,2.5 0 0,0 0,0.03 a 0.5,0.5 0 0,0 0,0.006 c -0.00999999999999,3.556 2.866,6.463 6.424,6.494 a 0.500025,0.500025 0 1,0 0.00999999999999,-1 a 5.471,5.471 0 0,1 -5.432,-5.491 a 0.5,0.5 0 0,0 0,-0.009 a 1.5,1.5 0 0,1 1.5,-1.5 a 1.5,1.5 0 0,1 1.5,1.5 a 2.5,2.5 0 0,0 2.5,2.5 a 2.5,2.5 0 0,0 2.5,-2.5 a 6.5,6.5 0 0,0 -6.5,-6.5 z m 0,2 a 4.5,4.5 0 0,0 -4.5,4.469 a 0.5,0.5 0 0,0 0,0.013 a 4.5,4.5 0 0,0 0,0.018 a 0.5,0.5 0 0,0 0,0.006 a 8.463,8.463 0 0,0 3.529,6.9 a 0.5,0.5 0 0,0 0.329,0.097 a 0.5,0.5 0 0,0 0.05,-0.006 a 0.5,0.5 0 0,0 0.204,-0.903 a 7.465,7.465 0 0,1 -3.112,-6.085 a 0.5,0.5 0 0,0 0,-0.01 a 3.5,3.5 0 0,1 3.5,-3.5 a 3.5,3.5 0 0,1 3.5,3.5 a 0.5,0.5 0 0,0 0.5,0.5 a 0.5,0.5 0 0,0 0.5,-0.5 a 0.5,0.5 0 0,0 0,-0.046 a 4.5,4.5 0 0,0 -4.498,-4.453 z m -0.00999999999999,3.981 a 0.5,0.5 0 0,0 -0.495,0.506 l 0,0.00700000000001 a 0.5,0.5 0 0,0 0,0.006 a 0.5,0.5 0 0,0 0,0.053 a 4.506,4.506 0 0,0 4.457,4.447 a 0.500025,0.500025 0 1,0 0.00999999999999,-1 a 3.492,3.492 0 0,1 -3.469,-3.5 a 0.5,0.5 0 0,0 0,-0.01 a 0.5,0.5 0 0,0 -0.505,-0.508 z" fill="#bebebe"/>
</svg>
