<?xml version="1.0" encoding="UTF-8" standalone="no"?>
<svg xmlns="http://www.w3.org/2000/svg" width="16" height="16" viewBox="0 0 16 16">
  <path d="m 12.5,8.499998 c 0,6.000002 -1.5,7 -5,7 c -3.5,0 -5,-0.999998 -5,-7 c 0,-5.999998 1.5,-7 5,-7 c 3.5,0 5,1.000002 5,7 z" fill="#bebebe"/>
  <path d="M 7.47625858,4.499998 L 7.47625862,4.499998 A 0.976259,0.976259 0 0,1 8.4525172,5.47625658 L 8.4525172,6.52373752 A 0.976259,0.976259 0 0,1 7.47625862,7.4999961 L 7.47625858,7.4999961 A 0.976259,0.976259 0 0,1 6.5,6.52373752 L 6.5,5.47625658 A 0.976259,0.976259 0 0,1 7.47625858,4.499998 Z" fill="#bebebe"/>
  <path d="M 7.5,4.5 L 7.5,1.499998" fill="#bebebe"/>
  <path d="M 7.5,7.499716 L 7.5,10" fill="#bebebe"/>
</svg>
