<?xml version="1.0" encoding="UTF-8" standalone="no"?>
<svg xmlns="http://www.w3.org/2000/svg" width="16" height="16" viewBox="0 0 16 16">
  <path d="M 3.784,2.019 a 1.739,1.739 0 0,0 -0.806,0.219 c -1.037,0.546 -1.992,2.336 -2.51,4.656 c -0.443,1.971 -0.605,4.666 -0.341,5.75 c 0.23,0.932 0.627,1.344 1.333,1.344 c 1.045,-0.018 2.359,-1.182 3.192,-2.75 c 0.603,-0.868 2,-1.263 3.348,-1.219 c 1.347,-0.047 2.745,0.351 3.347,1.219 c 0.833,1.568 2.147,2.732 3.193,2.75 c 0.706,0 1.103,-0.412 1.333,-1.344 c 0.263,-1.084 0.0999999999999,-3.779 -0.341,-5.75 c -0.52,-2.32 -1.474,-4.11 -2.511,-4.656 c -0.57,-0.305 -1.04,-0.296 -1.457,0 c -0.527,0.376 -1.626,0.78 -3.564,0.781 c -1.94,0.002 -3.038,-0.405 -3.565,-0.781 a 1.062,1.062 0 0,0 -0.65,-0.219 z m 0.248,3 l 0.992,0 l 0,1 l 0.992,0 l 0,1 l -0.992,0 l 0,1 l -0.992,0 l 0,-1 l -0.992,0 l 0,-1 l 0.992,0 z m 7.44,0 c 0.273,0 0.495,0.224 0.495,0.5 s -0.222,0.5 -0.496,0.5 a 0.498,0.498 0 0,1 -0.496,-0.5 c 0,-0.276 0.222,-0.5 0.496,-0.5 z m -0.993,1 c 0.274,0 0.496,0.224 0.496,0.5 s -0.222,0.5 -0.496,0.5 a 0.498,0.498 0 0,1 -0.496,-0.5 c 0,-0.276 0.222,-0.5 0.496,-0.5 z m 1.984,0 c 0.274,0 0.496,0.224 0.496,0.5 s -0.222,0.5 -0.496,0.5 a 0.498,0.498 0 0,1 -0.496,-0.5 c 0,-0.276 0.222,-0.5 0.496,-0.5 z m -0.992,1 c 0.274,0 0.496,0.224 0.496,0.5 s -0.222,0.5 -0.496,0.5 a 0.498,0.498 0 0,1 -0.496,-0.5 c 0,-0.276 0.222,-0.5 0.496,-0.5 z" fill="#bebebe"/>
</svg>
