<?xml version="1.0" encoding="UTF-8" standalone="no"?>
<svg xmlns="http://www.w3.org/2000/svg" width="16" height="16" viewBox="0 0 16 16">
  <path d="M 1.999,3 c -0.554,0 -1,0.446 -1,1 l 0,8 c 0,0.554 0.446,1 1,1 l 12.002,0 s 1,0 1,-1.002 l 0,-8 c 0,-1 -1,-0.998 -1,-0.998 z m 0.5,0.998 l 10.977,0 s 0.525,0 0.525,0.5 l 0,7 s 0,0.5 -0.5,0.5 L 2.499,11.998 s -0.5,0 -0.5,-0.5 l 0,-7 c 0,-0.5 0.5,-0.5 0.5,-0.5 z m 2.5,2.002 a 2,2 0 0,0 0,4 l 6,0 a 2,2 0 1,0 -2,-2 c 0,0.365 0.11,0.706 0.281,1 l -2.562,0 c 0.17,-0.294 0.281,-0.635 0.281,-1 a 2,2 0 0,0 -2,-2 z m 0,1 a 1,1 0 0,1 0,2 a 1,1 0 0,1 0,-2 z m 6,0 a 1,1 0 0,1 0,2 a 1,1 0 0,1 0,-2 z" fill="#bebebe"/>
</svg>
