<?xml version="1.0" encoding="UTF-8" standalone="no"?>
<svg xmlns="http://www.w3.org/2000/svg" width="16" height="16" viewBox="0 0 16 16">
  <path d="M 10.821,2.923 c -0.517,0.029 -0.894,0.459 -1.217,0.82 c -0.313,0.403 -0.632,0.844 -0.72,1.358 c -0.000999999999976,0.153 0.19,0.228 0.273,0.347 c 0.316,0.284 0.641,0.716 0.44,1.158 c -0.282,0.561 -0.816,0.934 -1.228,1.394 c -0.334,0.335 -0.761,0.79 -1.282,0.597 c -0.387,-0.146 -0.614,-0.503 -0.916,-0.746 c -0.417,0.032 -0.784,0.291 -1.133,0.505 c -0.447,0.324 -0.91,0.722 -1.072,1.27 c -0.095,0.435 0.362,0.669 0.645,0.898 c 0.707,0.512 1.657,0.58 2.465,0.287 c 1.301,-0.462 2.35,-1.424 3.273,-2.42 c 0.79,-0.898 1.543,-1.95 1.644,-3.179 c 0.0699999999999,-0.864 -0.37,-1.72 -1.036,-2.25 l -0.067,-0.027 l -0.068,-0.012 z" fill="#bebebe"/>
  <path d="M 10.907,10 c -0.782,0.648 -1.703,1.251 -2.844,1.656 c -1.614,0.586 -3.582,0.507 -5.188,-0.656 a 3.447,3.447 0 0,1 -0.125,-0.094 c 0.058,0.048 -0.13,-0.067 -0.375,-0.28 L 1,12 l 0,3 l 14,0 l 0,-3 l -2,-2 z m -0.407,1.797 c 0.39,0 0.703,0.313 0.703,0.703 c 0,0.39 -0.313,0.703 -0.703,0.703 a 0.702,0.702 0 0,1 -0.703,-0.703 c 0,-0.39 0.314,-0.703 0.703,-0.703 z m 2,0.023 c 0.377,0 0.68,0.303 0.68,0.68 c 0,0.377 -0.303,0.68 -0.68,0.68 a 0.678,0.678 0 0,1 -0.68,-0.68 c 0,-0.377 0.304,-0.68 0.68,-0.68 z" fill="#bebebe"/>
</svg>
