<?xml version="1.0" encoding="UTF-8" standalone="no"?>
<svg xmlns="http://www.w3.org/2000/svg" width="16" height="16" viewBox="0 0 16 16">
  <path d="M 4.47,1 c -0.822,0 -1.47,0.648 -1.47,1.469 L 3,13.53 c 0,0.821 0.648,1.469 1.47,1.469 l 7.062,0 c 0.82,0 1.468,-0.648 1.468,-1.469 L 13,2.47 c 0,-0.821 -0.647,-1.469 -1.468,-1.469 z m -0.47,1 l 8,0 l 0,5 l -8,0 z m 4,6 a 3,3 0 0,1 0,6 a 3,3 0 0,1 0,-6 z" fill="#bebebe"/>
  <path d="M 9.5,11 A 1.5,1.5 0 0,1 8,12.5 A 1.5,1.5 0 0,1 6.5,11 A 1.5,1.5 0 0,1 8,9.5 A 1.5,1.5 0 0,1 9.5,11 Z" fill="#bebebe"/>
</svg>
