<?xml version="1.0" encoding="UTF-8" standalone="no"?>
<svg xmlns="http://www.w3.org/2000/svg" width="16" height="16" viewBox="0 0 16 16">
  <path d="M 8,3 c -2.853,0 -5.468,1.111 -7.5,2.938 l 1.282,1.437 c 1.811,-1.588 3.732,-2.375 6.218,-2.375 c 2.487,0 4.32,0.74 6.22,2.406 l 1.28,-1.469 c -2.031,-1.826 -4.646,-2.937 -7.5,-2.937 z m 0,4 c -1.847,0 -3.514,0.75 -4.875,1.875 l 1.344,1.406 c 0.907,-0.649 2.299,-1.281 3.469,-1.281 c 1.198,0 2.674,0.634 3.594,1.313 l 1.375,-1.47 C 11.546,7.72 9.848,7 8,7 z m 0,4 c -0.883,0 -1.764,0.477 -2.125,0.875 l 2.125,2.281 l 2.125,-2.281 c -0.36,-0.418 -1.24,-0.875 -2.125,-0.875 z" fill="#bebebe"/>
</svg>
