<?xml version="1.0" encoding="UTF-8" standalone="no"?>
<svg xmlns="http://www.w3.org/2000/svg" width="16" height="16" viewBox="0 0 16 16">
  <path d="M 5,0 c -1.108,0 -2,0.892 -2,2 l 0,12 c 0,1.108 0.892,2 2,2 l 6,0 c 1.108,0 2,-0.892 2,-2 L 13,2 c 0,-1.108 -0.892,-2 -2,-2 z m -0.5,3 l 7,0 c 0.277,0 0.5,0.223 0.5,0.5 l 0,9 c 0,0.277 -0.223,0.5 -0.5,0.5 l -7,0 a 0.499,0.499 0 0,1 -0.5,-0.5 l 0,-9 c 0,-0.277 0.223,-0.5 0.5,-0.5 z m 3.5,10.75 a 0.75,0.75 0 0,1 0,1.5 a 0.75,0.75 0 0,1 0,-1.5 z" fill="#bebebe"/>
</svg>
