<?xml version="1.0" encoding="UTF-8" standalone="no"?>
<svg xmlns="http://www.w3.org/2000/svg" width="16" height="16" viewBox="0 0 16 16">
  <path d="M 3.597,1 a 1.59,1.59 0 0,0 -1.594,1.594 L 2.003,13.407 c 0,0.882 0.711,1.593 1.594,1.593 l 8.813,0 A 1.59,1.59 0 0,0 14.003,13.407 L 14.003,2.594 a 1.59,1.59 0 0,0 -1.594,-1.594 z m 0.906,1 l 7,0 c 0.277,0 0.5,0.223 0.5,0.5 l 0,9 c 0,0.277 -0.223,0.5 -0.5,0.5 l -7,0 a 0.499,0.499 0 0,1 -0.5,-0.5 l 0,-9 c 0,-0.277 0.223,-0.5 0.5,-0.5 z m 7,11 a 0.5,0.5 0 0,1 0,1 a 0.5,0.5 0 0,1 0,-1 z" fill="#bebebe"/>
  <path d="M 5.003,7 L 11.003,7 L 11.003,8 L 5.003,8 Z" fill="#bebebe"/>
</svg>
