<?xml version="1.0" encoding="UTF-8" standalone="no"?>
<svg xmlns="http://www.w3.org/2000/svg" width="16" height="16" viewBox="0 0 16 16">
  <path d="m 4,0 c -1.108,0 -2,0.892 -2,2 l 0,13.5 c 0,0 0,0.5 0.5,0.5 l 11,0 c 0,0 0.5,0 0.5,-0.5 L 14,2 c 0,-1.108 -0.892,-2 -2,-2 z m 0,1 l 8,0 c 0.554,0 1,0.446 1,1 l 0,10.5 c 0,0 0.0540000000001,0.5 -0.5,0.5 l -9,0 c 0,0 -0.5,0 -0.5,-0.5 L 3,2 c 0,-0.554 0.446,-1 1,-1 z m 8.5,13 a 0.5,0.5 0 0,1 0,1 a 0.5,0.5 0 0,1 0,-1 z" fill="#bebebe"/>
  <path d="m 8,3 l -3,5 l 3,0 l 0,3 l 3,-5 l -3,0 z" fill="#bebebe"/>
</svg>
