<?xml version="1.0" encoding="UTF-8" standalone="no"?>
<svg xmlns="http://www.w3.org/2000/svg" width="16" height="16" viewBox="0 0 16 16">
  <path d="M 8,1 a 7,7 0 0,0 0,14 a 7,7 0 0,0 0,-14 z m 0,0.583 a 6.42,6.42 0 0,1 6.177,4.673 a 11.134,11.134 0 0,1 -2.72,3.547 c -0.545,0.472 -1.14,0.893 -1.797,1.189 c -0.657,0.296 -1.38,0.464 -2.099,0.423 a 3.632,3.632 0 0,1 -1.548,-0.444 a 11.676,11.676 0 0,0 3.314,-2.672 c 0.608,-0.712 1.14,-1.522 1.345,-2.436 c 0.102,-0.457 0.12,-0.936 0.0239999999999,-1.394 a 2.578,2.578 0 0,0 -0.629,-1.237 a 2.523,2.523 0 0,0 -1.166,-0.691 a 3.066,3.066 0 0,0 -1.36,-0.05 c -0.9,0.165 -1.704,0.689 -2.349,1.338 c -1.136,1.145 -1.839,2.76 -1.71,4.369 c 0.0640000000001,0.804 0.334,1.594 0.796,2.255 c 0.103,0.147 0.216,0.288 0.337,0.421 c -0.672,0.236 -1.369,0.403 -2.075,0.498 a 6.417,6.417 0 0,1 5.46,-9.788 z m 0.0409999999999,1.297 c 0.451,0 0.905,0.137 1.265,0.409 c 0.325,0.245 0.565,0.593 0.701,0.976 s 0.171,0.799 0.125,1.203 c -0.0930000000001,0.807 -0.5,1.548 -0.993,2.194 c -0.871,1.146 -2.03,2.062 -3.317,2.704 c -0.132,0.066 -0.266,0.128 -0.4,0.188 a 3.312,3.312 0 0,1 -0.704,-0.86 c -0.383,-0.678 -0.51,-1.482 -0.435,-2.257 c 0.0740000000001,-0.774 0.34,-1.52 0.697,-2.212 c 0.414,-0.802 0.978,-1.561 1.768,-1.997 c 0.395,-0.218 0.842,-0.349 1.293,-0.348 z m 6.318,4.261 a 6.417,6.417 0 0,1 -11.305,4.947 a 11.55,11.55 0 0,0 2.118,-0.703 c 0.298,0.227 0.627,0.413 0.977,0.547 c 1.007,0.386 2.15,0.33 3.169,-0.023 c 1.019,-0.353 1.922,-0.986 2.71,-1.722 a 11.666,11.666 0 0,0 2.332,-3.046 z" fill="#bebebe"/>
</svg>
