<?xml version="1.0" encoding="UTF-8" standalone="no"?>
<svg xmlns="http://www.w3.org/2000/svg" width="16" height="16" viewBox="0 0 16 16">
  <path d="M 8,11.97 a 0.498,0.498 0 0,1 -0.375,-0.158 l -2.5,-3 a 0.428,0.428 0 0,1 -0.0899999999999,-0.248 c -0.0139999999999,-0.266 0.188,-0.556 0.465,-0.564 l 1.5,0 l 0,-3.5 c 0,-0.262 0.238,-0.5 0.5,-0.5 l 1,0 a 0.492,0.492 0 0,1 0.0940000000001,0 c 0.23,0.044 0.41,0.267 0.406,0.5 l 0,3.5 l 1.5,0 c 0.37,0.011 0.606,0.524 0.375,0.813 l -2.5,3 a 0.497,0.497 0 0,1 -0.375,0.158 z" fill="#bebebe"/>
  <path d="M 8,0 a 8,8 0 0,0 0,16 a 8,8 0 0,0 0,-16 z m 0,2 a 6,6 0 0,1 0,12 a 6,6 0 0,1 0,-12 z" fill="#bebebe"/>
</svg>
