<?xml version="1.0" encoding="UTF-8" standalone="no"?>
<svg xmlns="http://www.w3.org/2000/svg" width="16" height="16" viewBox="0 0 16 16">
  <path d="M 1.75,1 a 0.748,0.748 0 0,0 -0.75,0.75 l 0,13.5 c 0,0.415 0.335,0.75 0.75,0.75 l 12.5,0 c 0.416,0 0.75,-0.335 0.75,-0.75 l 0,-13.5 a 0.748,0.748 0 0,0 -0.75,-0.75 z m 0.25,1 l 1,0 l 0,1 l -1,0 z m 2.5,0 l 7,0 c 0.277,0 0.5,0.223 0.5,0.5 l 0,5 c 0,0.277 -0.223,0.5 -0.5,0.5 l -7,0 a 0.499,0.499 0 0,1 -0.5,-0.5 l 0,-5 c 0,-0.277 0.223,-0.5 0.5,-0.5 z m 8.5,0 l 1,0 l 0,1 l -1,0 z m -11,2 l 1,0 l 0,1 l -1,0 z m 11,0 l 1,0 l 0,1 l -1,0 z m -11,2 l 1,0 l 0,1 l -1,0 z m 11,0 l 1,0 l 0,1 l -1,0 z m -11,2 l 1,0 l 0,1 l -1,0 z m 11,0 l 1,0 l 0,1 l -1,0 z m -8.5,1 l 7,0 c 0.277,0 0.5,0.223 0.5,0.5 l 0,5 c 0,0.277 -0.223,0.5 -0.5,0.5 l -7,0 a 0.499,0.499 0 0,1 -0.5,-0.5 l 0,-5 c 0,-0.277 0.223,-0.5 0.5,-0.5 z m -2.5,1 l 1,0 l 0,1 l -1,0 z m 11,0 l 1,0 l 0,1 l -1,0 z m -11,2 l 1,0 l 0,1 l -1,0 z m 11,0 l 1,0 l 0,1 l -1,0 z m -11,2 l 1,0 l 0,1 l -1,0 z m 11,0 l 1,0 l 0,1 l -1,0 z" fill="#bebebe"/>
</svg>
