<?xml version="1.0" encoding="UTF-8" standalone="no"?>
<svg xmlns="http://www.w3.org/2000/svg" width="16" height="16" viewBox="0 0 16 16">
  <path d="M 8.885,1 c -3.705,0 -6.754,2.44 -7.087,6 L 0,7 l 2.655,3.333 l 2.654,-3.333 l -1.733,0 c 0.328,-2.595 2.584,-4.26 5.31,-4.26 c 2.95,0 5.345,2.356 5.345,5.26 s -2.395,5.26 -5.346,5.26 c -1.6,0 -3.038,-0.694 -4.018,-1.793 l -1.3,1.185 a 7.145,7.145 0 0,0 5.318,2.348 c 3.928,0 7.115,-3.136 7.115,-7 s -3.187,-7 -7.115,-7 z" fill="#bebebe"/>
  <path d="M 9.334,3.667 l -0.667,0 l -0.667,4.666 l 3.334,2.667 l 0,-0.667 l -2,-2.666 z" fill="#bebebe"/>
</svg>
