<?xml version="1.0" encoding="UTF-8" standalone="no"?>
<svg xmlns="http://www.w3.org/2000/svg" width="16" height="16" viewBox="0 0 16 16">
  <path d="M 8,1.014 a 0.498,0.498 0 0,0 -0.375,0.158 l -2.5,3 a 0.428,0.428 0 0,0 -0.0899999999999,0.248 c -0.0139999999999,0.266 0.188,0.556 0.465,0.564 l 1.5,0 l 0,3.5 c 0,0.262 0.238,0.5 0.5,0.5 l 1,0 a 0.492,0.492 0 0,0 0.0940000000001,0 a 0.517,0.517 0 0,0 0.406,-0.5 l 0,-3.5 l 1.5,0 c 0.37,-0.00999999999999 0.606,-0.524 0.375,-0.812 l -2.5,-3 a 0.497,0.497 0 0,0 -0.375,-0.158 z m -4.5,0.986 c -0.83,0 -1.5,0.669 -1.5,1.5 l 0,9 c 0,0.831 0.67,1.5 1.5,1.5 l 9,0 c 0.831,0 1.5,-0.669 1.5,-1.5 l 0,-9 c 0,-0.831 -0.669,-1.5 -1.5,-1.5 l -2.133,0 l 0.832,1 l 0.801,0 c 0.554,0 1,0.446 1,1 l 0,6 l -3,0 c 0,1.108 -0.892,2 -2,2 s -2,-0.892 -2,-2 l -3,0 l 0,-6 c 0,-0.554 0.446,-1 1,-1 l 0.801,0 l 0.832,-1 z" fill="#bebebe"/>
</svg>
