<?xml version="1.0" encoding="UTF-8" standalone="no"?>
<svg xmlns="http://www.w3.org/2000/svg" width="16" height="16" viewBox="0 0 16 16">
  <path d="M 7.5,1.002 a 0.52,0.52 0 0,0 -0.5,0.5 l 0,3.5 l -1.5,0 c -0.277,0.00799999999998 -0.478,0.3 -0.465,0.566 c 0,0.09 0.0319999999999,0.174 0.0899999999999,0.246 l 2.5,3 a 0.522,0.522 0 0,0 0.75,0 l 2.5,-3 c 0.231,-0.288 -0.00999999999999,-0.8 -0.375,-0.812 l -1.5,0 l 0,-3.5 a 0.52,0.52 0 0,0 -0.406,-0.5 a 0.492,0.492 0 0,0 -0.0940000000001,0 z m -4,0.998 c -0.83,0 -1.5,0.669 -1.5,1.5 l 0,9 c 0,0.831 0.67,1.5 1.5,1.5 l 9,0 c 0.831,0 1.5,-0.669 1.5,-1.5 l 0,-9 c 0,-0.831 -0.669,-1.5 -1.5,-1.5 l -2.5,0 l 0,1 l 2,0 c 0.554,0 1,0.446 1,1 l 0,6 l -3,0 c 0,1.108 -0.892,2 -2,2 s -2,-0.892 -2,-2 l -3,0 l 0,-6 c 0,-0.554 0.446,-1 1,-1 l 2,0 l 0,-1 z" fill="#bebebe"/>
</svg>
