<?xml version="1.0" encoding="UTF-8" standalone="no"?>
<svg xmlns="http://www.w3.org/2000/svg" width="16" height="16" viewBox="0 0 16 16">
  <path d="M 3.5,1 c -0.831,0 -1.5,0.669 -1.5,1.5 l 0,11 c 0,0.831 0.669,1.5 1.5,1.5 l 9,0 c 0.831,0 1.5,-0.669 1.5,-1.5 l 0,-5.967 l -1,1 l 0,4.967 c 0,0.302 -0.198,0.5 -0.5,0.5 l -9,0 c -0.302,0 -0.5,-0.198 -0.5,-0.5 l 0,-11 c 0,-0.302 0.198,-0.5 0.5,-0.5 l 6.963,0 l 0.994,-1 z m 9.71,0 a 0.83,0.83 0 0,0 -0.589,0.246 l -0.906,0.912 l 3.125,3.125 l 0.91,-0.906 c 0.33,-0.33 0.33,-0.85 0,-1.18 l -1.95,-1.95 a 0.83,0.83 0 0,0 -0.59,-0.247 z m -2.554,2.22 l -6.666,6.667 l 0,3.119 l 3.121,0 l 6.664,-6.664 z M 4.998,10 l 1,0 l 0,1 l 1,0 l 0,1 l -2,0 z" fill="#bebebe"/>
</svg>
