<?xml version="1.0" encoding="UTF-8" standalone="no"?>
<svg xmlns="http://www.w3.org/2000/svg" width="16" height="16" viewBox="0 0 16 16">
  <path d="M 2,2.523 l 0,11 s 0,1.5 1.5,1.5 l 10,0 c 1.5,0 1.5,-1.5 1.5,-1.5 l 0,-11 s 0,-1.5 -1.5,-1.5 l -10,0 c -1.5,0 -1.5,1.5 -1.5,1.5 z m 1.5,-0.5 l 10,0 s 0.5,0 0.5,0.5 l 0,2 c 0,0.5 -0.5,0.5 -0.5,0.5 l -10,0 c -0.5,0 -0.5,-0.5 -0.5,-0.5 l 0,-2 s 0,-0.5 0.5,-0.5 z m -0.314,4 l 1.625,0 c 0.11,0 0.187,0.08 0.187,0.19 l 0,1.625 c 0,0.1 -0.077,0.18 -0.188,0.18 l -1.625,0 a 0.181,0.181 0 0,1 -0.187,-0.19 l 0,-1.625 c 0,-0.1 0.077,-0.18 0.188,-0.18 z m 3,0 l 1.625,0 c 0.11,0 0.187,0.08 0.187,0.19 l 0,1.625 c 0,0.1 -0.077,0.18 -0.188,0.18 l -1.625,0 a 0.181,0.181 0 0,1 -0.187,-0.19 l 0,-1.625 c 0,-0.1 0.077,-0.18 0.188,-0.18 z m 3,0 l 1.625,0 c 0.11,0 0.187,0.08 0.187,0.19 l 0,1.625 c 0,0.1 -0.077,0.18 -0.188,0.18 l -1.625,0 a 0.181,0.181 0 0,1 -0.187,-0.19 l 0,-1.625 c 0,-0.1 0.077,-0.18 0.188,-0.18 z m 3,0 l 1.625,0 c 0.11,0 0.187,0.08 0.187,0.19 l 0,1.625 c 0,0.1 -0.077,0.18 -0.188,0.18 l -1.625,0 a 0.181,0.181 0 0,1 -0.187,-0.19 l 0,-1.625 c 0,-0.1 0.077,-0.18 0.188,-0.18 z m -9,3 l 1.625,0 c 0.11,0 0.187,0.08 0.187,0.19 l 0,1.625 c 0,0.1 -0.077,0.18 -0.188,0.18 l -1.625,0 a 0.181,0.181 0 0,1 -0.187,-0.19 l 0,-1.625 c 0,-0.1 0.077,-0.18 0.188,-0.18 z m 3,0 l 1.625,0 c 0.11,0 0.187,0.08 0.187,0.19 l 0,1.625 c 0,0.1 -0.077,0.18 -0.188,0.18 l -1.625,0 a 0.181,0.181 0 0,1 -0.187,-0.19 l 0,-1.625 c 0,-0.1 0.077,-0.18 0.188,-0.18 z m 3,0 l 1.625,0 c 0.11,0 0.187,0.08 0.187,0.19 l 0,1.625 c 0,0.1 -0.077,0.18 -0.188,0.18 l -1.625,0 a 0.181,0.181 0 0,1 -0.187,-0.19 l 0,-1.625 c 0,-0.1 0.077,-0.18 0.188,-0.18 z m 3,0 l 1.625,0 c 0.11,0 0.187,0.08 0.187,0.19 l 0,1.625 c 0,0.1 -0.077,0.18 -0.188,0.18 l -1.625,0 a 0.181,0.181 0 0,1 -0.187,-0.19 l 0,-1.625 c 0,-0.1 0.077,-0.18 0.188,-0.18 z m -9,3 l 1.625,0 c 0.11,0 0.187,0.08 0.187,0.19 l 0,1.625 c 0,0.1 -0.077,0.18 -0.188,0.18 l -1.625,0 a 0.181,0.181 0 0,1 -0.187,-0.19 l 0,-1.625 c 0,-0.1 0.077,-0.18 0.188,-0.18 z m 3,0 l 1.625,0 c 0.11,0 0.187,0.08 0.187,0.19 l 0,1.625 c 0,0.1 -0.077,0.18 -0.188,0.18 l -1.625,0 a 0.181,0.181 0 0,1 -0.187,-0.19 l 0,-1.625 c 0,-0.1 0.077,-0.18 0.188,-0.18 z m 3,0 l 1.625,0 c 0.11,0 0.187,0.08 0.187,0.19 l 0,1.625 c 0,0.1 -0.077,0.18 -0.188,0.18 l -1.625,0 a 0.181,0.181 0 0,1 -0.187,-0.19 l 0,-1.625 c 0,-0.1 0.077,-0.18 0.188,-0.18 z m 3,0 l 1.625,0 c 0.11,0 0.187,0.08 0.187,0.19 l 0,1.625 c 0,0.1 -0.077,0.18 -0.188,0.18 l -1.625,0 a 0.181,0.181 0 0,1 -0.187,-0.19 l 0,-1.625 c 0,-0.1 0.077,-0.18 0.188,-0.18 z" fill="#bebebe"/>
</svg>
