<?xml version="1.0" encoding="UTF-8" standalone="no"?>
<svg xmlns="http://www.w3.org/2000/svg" width="24" height="24" viewBox="0 0 24 24">
  <path d="M 9,1 c -0.554,0 -1,0.446 -1,1 l 0,1 l 2,0 l 0,-1 c 0,-0.554 -0.446,-1 -1,-1 z m 1,2 l 0,1 c 0,0.554 -0.446,1 -1,1 s -1,-0.446 -1,-1 l 0,-1 l -3,0 c -1.108,0 -2,0.892 -2,2 l 0,15 c 0,1.108 0.892,2 2,2 l 15,0 c 2,0 2,-2 2,-2 l 0,-15 c 0,-1.108 -0.892,-2 -2,-2 l -3,0 l 0,1 c 0,0.554 -0.446,1 -1,1 s -1,-0.446 -1,-1 l 0,-1 z m 5,0 l 2,0 l 0,-1 c 0,-0.554 -0.446,-1 -1,-1 s -1,0.446 -1,1 z m -9,7 l 13,0 s 1,0 1,1 l 0,8 c 0,0.554 -0.446,1 -1,1 L 6,20 c -0.554,0 -1,-0.446 -1,-1 l 0,-8 c 0,-1 1,-1 1,-1 z" fill="#bebebe"/>
</svg>
