<?xml version="1.0" encoding="UTF-8" standalone="no"?>
<svg xmlns="http://www.w3.org/2000/svg" width="16" height="16" viewBox="0 0 16 16">
  <path d="M 2.468,0.969 a 1.5,1.5 0 0,0 -1.5,1.5 a 1.5,1.5 0 0,0 1,1.412 l 0,8.207 a 1.5,1.5 0 0,0 -1,1.412 a 1.5,1.5 0 0,0 1.5,1.5 a 1.5,1.5 0 0,0 1.412,-1 l 8.186,0 a 1.5,1.5 0 0,0 1.402,0.969 a 1.5,1.5 0 0,0 1.5,-1.5 a 1.5,1.5 0 0,0 -1,-1.412 l 0,-8.176 a 1.5,1.5 0 0,0 1,-1.412 a 1.5,1.5 0 0,0 -1.5,-1.5 a 1.5,1.5 0 0,0 -1.424,1.031 l -8.154,0 a 1.5,1.5 0 0,0 -1.422,-1.031 z m 1.4,2.031 l 8.198,0 a 1.5,1.5 0 0,0 0.0530000000001,0.121 l -1.201,1.215 a 1.243,1.243 0 0,0 -1.59,0.658 l -2.719,0 a 1.243,1.243 0 0,0 -1.613,-0.65 l -1.19,-1.201 a 1.5,1.5 0 0,0 0.0619999999999,-0.143 z m 8.961,0.824 a 1.5,1.5 0 0,0 0.14,0.057 l 0,8.176 a 1.5,1.5 0 0,0 -0.18,0.076 l -1.16,-1.172 a 1.244,1.244 0 0,0 -0.66,-1.605 l 0,-2.711 a 1.244,1.244 0 0,0 0.66,-1.608 z m -9.746,0.00999999999999 l 1.217,1.229 a 1.244,1.244 0 0,0 0.668,1.582 l 0,2.71 a 1.244,1.244 0 0,0 -0.668,1.583 l -1.195,1.207 a 1.5,1.5 0 0,0 -0.137,-0.057 l 0,-8.207 a 1.5,1.5 0 0,0 0.115,-0.047 z m 3.534,2.16 l 2.703,0 c 0.125,0.292 0.357,0.524 0.648,0.65 l 0,2.712 a 1.242,1.242 0 0,0 -0.64,0.638 l -2.72,0 a 1.242,1.242 0 0,0 -0.64,-0.638 l 0,-2.711 c 0.291,-0.127 0.524,-0.359 0.649,-0.65 z m 0,5 l 2.703,0 a 1.245,1.245 0 0,0 1.597,0.67 l 1.182,1.196 a 1.5,1.5 0 0,0 -0.0550000000001,0.14 l -8.164,0 a 1.5,1.5 0 0,0 -0.0640000000001,-0.152 l 1.18,-1.192 a 1.245,1.245 0 0,0 1.621,-0.662 z" fill="#bebebe"/>
</svg>
