<?xml version="1.0" encoding="UTF-8" standalone="no"?>
<svg xmlns="http://www.w3.org/2000/svg" width="16" height="16" viewBox="0 0 16 16">
  <path d="M 2.5,1 c -0.822,0 -1.5,0.678 -1.5,1.5 l 0,11 c 0,0.822 0.678,1.5 1.5,1.5 l 11,0 c 0.823,0 1.5,-0.678 1.5,-1.5 l 0,-11 c 0,-0.822 -0.677,-1.5 -1.5,-1.5 z m 0,1 l 11,0 c 0.286,0 0.5,0.214 0.5,0.5 l 0,11 c 0,0.286 -0.214,0.5 -0.5,0.5 l -11,0 a 0.488,0.488 0 0,1 -0.5,-0.5 l 0,-11 c 0,-0.286 0.215,-0.5 0.5,-0.5 z m 4.701,2.002 l 0,1.187 l -0.175,0.063 c -0.0820000000001,0.03 -0.176,0.075 -0.276,0.123 l -0.168,0.082 l -0.834,-0.832 c 0,-0.00299999999999 -0.00999999999999,-0.00400000000002 -0.0119999999999,-0.00599999999997 c 0,0.00200000000001 -0.0119999999999,0.00400000000002 -0.0119999999999,0.00599999999997 l -1.1,1.1 c 0.0119999999999,-0.011 0.0119999999999,0.03 0,0.02 l 0.833,0.835 l -0.0820000000001,0.17 a 3.07,3.07 0 0,0 -0.121,0.273 l -0.0650000000001,0.178 l -1.19,0 l 0,1.598 l 1.19,0 l 0.0650000000001,0.178 c 0.029,0.08 0.0719999999999,0.173 0.12,0.273 l 0.0830000000001,0.17 l -0.832,0.836 c 0.00999999999999,-0.00999999999999 0.00999999999999,0.03 0,0.02 l 1.1,1.099 c -0.0119999999999,-0.00999999999999 0.0319999999999,-0.00999999999999 0.0219999999999,0 l 0.834,-0.832 l 0.168,0.082 c 0.0999999999999,0.047 0.193,0.093 0.276,0.123 l 0.175,0.062 l 0,1.188 l 1.6,0 l 0,-1.188 l 0.178,-0.062 c 0.0820000000001,-0.03 0.173,-0.075 0.273,-0.123 l 0.172,-0.082 l 0.832,0.832 c -0.011,-0.00999999999999 0.0340000000001,-0.00999999999999 0.0229999999999,0 l 1.1,-1.1 c -0.011,0.011 -0.011,-0.03 0,-0.02 l -0.834,-0.835 l 0.0820000000001,-0.17 c 0.048,-0.1 0.0920000000001,-0.192 0.12,-0.274 l 0.0650000000001,-0.177 l 1.188,0 l 0,-1.598 l -1.188,0 l -0.0640000000001,-0.178 a 2.75,2.75 0 0,0 -0.121,-0.273 l -0.0820000000001,-0.17 l 0.834,-0.836 c -0.011,0.00999999999999 -0.011,-0.03 0,-0.02 l -1.1,-1.099 c 0.011,0.00999999999999 -0.0340000000001,0.00999999999999 -0.0219999999999,0 l -0.834,0.832 l -0.17,-0.082 c -0.0989999999999,-0.048 -0.193,-0.093 -0.275,-0.123 l -0.176,-0.063 l 0,-1.187 z m 0.801,2.666 c 0.733,0 1.332,0.6 1.332,1.332 c 0,0.733 -0.599,1.332 -1.332,1.332 c -0.733,0 -1.334,-0.6 -1.334,-1.332 c 0,-0.733 0.601,-1.332 1.334,-1.332 z" fill="#bebebe"/>
</svg>
