<?xml version="1.0" encoding="UTF-8" standalone="no"?>
<svg xmlns="http://www.w3.org/2000/svg" width="16" height="16" viewBox="0 0 16 16">
  <path d="M 2.5,3 c -0.83,0 -1.5,0.669 -1.5,1.5 l 0,8 c 0,0.831 0.67,1.5 1.5,1.5 l 11,0 c 0.831,0 1.5,-0.669 1.5,-1.5 l 0,-8 c 0,-0.831 -0.669,-1.5 -1.5,-1.5 z m 0,1 l 11,0 c 0.277,0 0.5,0.223 0.5,0.5 l 0,1.5 l -12,0 l 0,-1.5 c 0,-0.277 0.223,-0.5 0.5,-0.5 z m -0.5,4 l 12,0 l 0,4.5 c 0,0.277 -0.223,0.5 -0.5,0.5 l -11,0 a 0.499,0.499 0 0,1 -0.5,-0.5 z m 8.5,3 a 0.5,0.5 0 0,0 -0.5,0.5 a 0.5,0.5 0 0,0 0.5,0.5 a 0.5,0.5 0 0,0 0.5,-0.5 a 0.5,0.5 0 0,0 -0.5,-0.5 z m 2,0 a 0.5,0.5 0 0,0 -0.5,0.5 a 0.5,0.5 0 0,0 0.5,0.5 a 0.5,0.5 0 0,0 0.5,-0.5 a 0.5,0.5 0 0,0 -0.5,-0.5 z" fill="#bebebe"/>
</svg>
