<?xml version="1.0" encoding="UTF-8" standalone="no"?>
<svg xmlns="http://www.w3.org/2000/svg" width="16" height="16" viewBox="0 0 16 16">
  <path d="M 13.37,0 l -7.376,1.906 c -0.554,0.149 -1,0.74 -1,1.313 l 0,9.094 a 2.84,2.84 0 0,0 -2.03,-0.22 c -1.35,0.351 -2.196,1.485 -1.907,2.532 c 0.29,1.047 1.619,1.632 2.969,1.281 c 1.076,-0.28 1.819,-1.071 1.937,-1.906 l 0.0309999999999,-8.594 l 7,-1.875 l 0,6.781 a 2.84,2.84 0 0,0 -2.031,-0.218 c -1.35,0.35 -2.196,1.484 -1.906,2.531 c 0.289,1.047 1.619,1.632 2.968,1.281 c 1.077,-0.28 1.82,-1.071 1.938,-1.906 l 0.03,-11.188 c 0,-0.43 -0.265,-0.751 -0.624,-0.812 z" fill="#bebebe"/>
</svg>
