<?xml version="1.0" encoding="UTF-8" standalone="no"?>
<svg xmlns="http://www.w3.org/2000/svg" width="16" height="16" viewBox="0 0 16 16">
  <path d="M 3,0 c -0.554,0 -1,0.446 -1,1 l 0,14 c 0,0.554 0.446,1 1,1 l 10,0 c 0.554,0 1,-0.446 1,-1 l 0,-10 c 0,-0.554 -4.446,-5 -5,-5 z m 0.5,1 l 5.5,0 l 0,4 l 4,0 l 0,9.5 c 0,0.277 -0.223,0.5 -0.5,0.5 l -9,0 a 0.499,0.499 0 0,1 -0.5,-0.5 l 0,-13 c 0,-0.277 0.223,-0.5 0.5,-0.5 z m 1.5,7 l 0,1 l 6,0 l 0,-1 z m 0,2 l 0,1 l 6,0 l 0,-1 z m 0,2 l 0,1 l 4,0 l 0,-1 z" fill="#bebebe"/>
</svg>
