<?xml version="1.0" encoding="UTF-8" standalone="no"?>
<svg xmlns="http://www.w3.org/2000/svg" width="16" height="16" viewBox="0 0 16 16">
  <path d="M 5.5,1 c -0.277,0 -0.5,0.227 -0.5,0.5 l 0,0.5 l 1,0 l 0,-0.5 c 0,-0.277 -0.223,-0.5 -0.5,-0.5 z m 0.5,1 l 0,0.5 a 0.5,0.5 0 1,1 -1,0 l 0,-0.5 l -1.5,0 c -0.831,0 -1.5,0.669 -1.5,1.5 l 0,9 c 0,0.831 0.669,1.5 1.5,1.5 l 9,0 c 0.831,0 1.5,-0.669 1.5,-1.5 l 0,-9 c 0,-0.831 -0.669,-1.5 -1.5,-1.5 L 11,2 l 0,0.5 a 0.5,0.5 0 1,1 -1,0 l 0,-0.5 z m 4,0 l 1,0 l 0,-0.5 a 0.5,0.5 0 1,0 -1,0 z m -6.5,4 l 9,0 c 0.277,0 0.5,0.223 0.5,0.5 l 0,6 c 0,0.277 -0.223,0.5 -0.5,0.5 l -9,0 a 0.499,0.499 0 0,1 -0.5,-0.5 l 0,-6 c 0,-0.277 0.223,-0.5 0.5,-0.5 z" fill="#bebebe"/>
</svg>
