<?xml version="1.0" encoding="UTF-8" standalone="no"?>
<svg xmlns="http://www.w3.org/2000/svg" width="24" height="24" viewBox="0 0 24 24">
  <path d="M 5,13.503 c 0.000999999999976,0.794 0.034,0.781 1.031,0.532 l 4.97,-1.625 l 0,4.5 l -1.782,1.218 c -0.209,0.14 -0.219,0.123 -0.219,0.344 l 0,0.219 c 0,0.428 0.438,0.281 0.438,0.281 L 12,18.691 l 2.563,0.281 s 0.437,0.14 0.437,-0.25 l 0,-0.25 c 0,-0.211 -0.00900000000001,-0.204 -0.219,-0.344 l -1.78,-1.218 l 0,-4.5 l 4.937,1.625 c 1.047,0.261 1.062,0.264 1.062,-0.532 c 0,-0.432 -0.011,-0.433 -0.5,-0.718 L 13,9.097 l 0,-3.094 c 0,-0.554 -0.446,-1 -1,-1 s -1,0.446 -1,1 l 0,3.094 l -5.5,3.688 c -0.457,0.266 -0.498,0.283 -0.5,0.656 z" fill="#bebebe"/>
</svg>
