<?xml version="1.0" encoding="UTF-8" standalone="no"?>
<svg xmlns="http://www.w3.org/2000/svg" width="16" height="16" viewBox="0 0 16 16">
  <path d="M 7.492,5.992 A 0.5,0.5 0 0,0 7,6.5 l 0,2.5 l -1.5,0 a 0.5,0.5 0 0,0 0,1 l 2,0 a 0.5,0.5 0 0,0 0.5,-0.5 l 0,-3 a 0.5,0.5 0 0,0 -0.508,-0.508 z" fill="#bebebe"/>
  <path d="m 10.71875,1 c -0.94506,0 -1.79433,0.40622 -2.39063,1.04688 c 2.27853,0.25376 4.25846,1.54003 5.45704,3.37695 A 3.14,3.14 0 0,0 14,4.28125 A 3.289,3.289 0 0,0 10.71875,1 Z" fill="#bebebe"/>
  <path d="m 7.5,3 c -3.578,0 -6.5,2.922 -6.5,6.5 c 0,1.68312 0.64777,3.22004 1.70508,4.37695 l -0.41211,0.41211 c -0.39174,0.39174 -0.39174,1.02428 0,1.41602 c 0.39174,0.39174 1.02428,0.39174 1.41601,0 l 0.56641,-0.56641 c 0.95149,0.54724 2.05279,0.86133 3.22461,0.86133 c 1.17182,0 2.27312,-0.31409 3.22461,-0.86133 l 0.56641,0.56641 c 0.39173,0.39174 1.02232,0.39174 1.41406,0 c 0.39173,-0.39174 0.39173,-1.02428 0,-1.41602 l -0.41016,-0.41015 C 13.35279,12.72187 14,11.18363 14,9.5 c 0,-3.578 -2.922,-6.5 -6.5,-6.5 z m 0,2 c 2.49712,0 4.5,2.00288 4.5,4.5 c 0,2.49712 -2.00288,4.5 -4.5,4.5 c -2.49712,0 -4.5,-2.00288 -4.5,-4.5 c 0,-2.49712 2.00288,-4.5 4.5,-4.5 z" fill="#bebebe"/>
  <path d="m 4.28125,1 c 0.94506,0 1.79433,0.40622 2.39063,1.04688 c -2.27853,0.25376 -4.25846,1.54003 -5.45704,3.37695 A 3.14,3.14 0 0,1 1,4.28125 A 3.289,3.289 0 0,1 4.28125,1 Z" fill="#bebebe"/>
</svg>
