<?xml version="1.0" encoding="UTF-8" standalone="no"?>
<svg xmlns="http://www.w3.org/2000/svg" width="16" height="16" viewBox="0 0 16 16">
  <path d="M 8,0 a 8,8 0 0,0 0,16 a 8,8 0 0,0 0,-16 z m 0,1 a 7,7 0 0,1 7,7 c 0,1.972 -0.844,3.728 -2.156,5 c -0.443,-1.727 -1.975,-3 -3.844,-3 l -2,0 c -1.869,0 -3.4,1.273 -3.844,3 c -1.312,-1.272 -2.156,-3.028 -2.156,-5 a 7,7 0 0,1 7,-7 z" fill="#bebebe"/>
  <path d="M 8,3.25 c -1.795,0 -3.25,1.4 -3.25,3.125 c 0,1.726 1.455,3.125 3.25,3.125 s 3.25,-1.4 3.25,-3.125 c 0,-1.726 -1.455,-3.125 -3.25,-3.125 z" fill="#bebebe"/>
</svg>
