<?xml version="1.0" encoding="UTF-8" standalone="no"?>
<svg xmlns="http://www.w3.org/2000/svg" width="16" height="16" viewBox="0 0 16 16">
  <path d="M 1,3 c -0.554,0 -1,2.23 -1,5 s 0.446,5 1,5 l 12,0 c 0.411,0 0.76,-1.235 0.914,-3 l 1.584,0 c 0.278,0 0.502,-0.892 0.502,-2 s -0.224,-2 -0.502,-2 l -1.584,0 c -0.154,-1.765 -0.503,-3 -0.914,-3 z m 0.512,1 l 10.976,0 c 0.284,0 0.512,1.784 0.512,4 s -0.228,4 -0.512,4 l -10.976,0 c -0.284,0 -0.512,-1.784 -0.512,-4 s 0.228,-4 0.512,-4 z m 5.488,8 l 3,-5 l -3,0 l 0,-3 l -3,5 l 3,0 z m 6.96,-5 l 0.93,0 c 0.061,0 0.11,0.446 0.11,1 s -0.049,1 -0.11,1 l -0.93,0 c 0.013,-0.334 0.04,-0.645 0.04,-1 s -0.027,-0.666 -0.04,-1 z" fill="#bebebe"/>
</svg>
