<?xml version="1.0" encoding="UTF-8" standalone="no"?>
<svg xmlns="http://www.w3.org/2000/svg" width="16" height="16" viewBox="0 0 16 16">
  <path d="M 1,3 c -0.554,0 -1,2.23 -1,5 s 0.446,5 1,5 l 12,0 c 0.411,0 0.76,-1.235 0.914,-3 l 1.584,0 c 0.278,0 0.502,-0.892 0.502,-2 s -0.224,-2 -0.502,-2 l -1.584,0 c -0.154,-1.765 -0.503,-3 -0.914,-3 z m 0.512,1 l 10.976,0 c 0.284,0 0.512,1.784 0.512,4 s -0.228,4 -0.512,4 l -10.976,0 c -0.284,0 -0.512,-1.784 -0.512,-4 s 0.228,-4 0.512,-4 z m 0.742,1 c -0.14,0 -0.254,1.338 -0.254,3 s 0.114,3 0.254,3 l 7.492,0 c 0.14,0 0.254,-1.338 0.254,-3 s -0.114,-3 -0.254,-3 z m 11.705,2 l 0.932,0 c 0.06,0 0.11,0.446 0.11,1 s -0.05,1 -0.11,1 l -0.932,0 c 0.014,-0.334 0.041,-0.645 0.041,-1 s -0.027,-0.666 -0.04,-1 z" fill="#bebebe"/>
</svg>
