<?xml version="1.0" encoding="UTF-8" standalone="no"?>
<svg xmlns="http://www.w3.org/2000/svg" width="48" height="48" viewBox="0 0 48 48">
  <path d="M 10,14 c -1.108,0 -2,4.46 -2,10 s 0.892,10 2,10 l 28,0 c 0.822,0 1.52,-2.47 1.828,-6 l 3.168,0 c 0.556,0 1.004,-1.784 1.004,-4 s -0.448,-4 -1.004,-4 l -3.168,0 c -0.308,-3.53 -1.006,-6 -1.828,-6 z m 1.024,2 l 25.953,0 c 0.567,0 1.023,3.568 1.023,8 s -0.456,8 -1.023,8 l -25.953,0 c -0.567,0 -1.024,-3.568 -1.024,-8 s 0.457,-8 1.024,-8 z m 28.894,6 l 1.863,0 c 0.121,0 0.22,0.892 0.22,2 s -0.099,2 -0.22,2 l -1.863,0 c 0.028,-0.668 0.082,-1.29 0.082,-2 s -0.054,-1.332 -0.082,-2 z" fill="#bebebe"/>
  <path class="warning" d="M 12.508,18 c -0.28,0 -0.508,2.676 -0.508,6 s 0.228,6 0.508,6 l 4.984,0 c 0.28,0 0.508,-2.676 0.508,-6 s -0.227,-6 -0.508,-6 z" fill="#f57900"/>
</svg>
