<?xml version="1.0" encoding="UTF-8" standalone="no"?>
<svg xmlns="http://www.w3.org/2000/svg" width="48" height="48" viewBox="0 0 48 48">
  <path d="M 23.5,9 c -0.277,0 -0.5,0.223 -0.5,0.5 l 0,3 c 0,0.277 0.223,0.5 0.5,0.5 l 1,0 c 0.277,0 0.5,-0.223 0.5,-0.5 l 0,-3 c 0,-0.277 -0.223,-0.5 -0.5,-0.5 z m -9.398,3.895 a 0.5,0.5 0 0,0 -0.356,0.144 l -0.707,0.707 a 0.499,0.499 0 0,0 0,0.707 l 2.121,2.121 a 0.499,0.499 0 0,0 0.707,0 l 0.707,-0.707 a 0.499,0.499 0 0,0 0,-0.707 l -2.12,-2.12 a 0.492,0.492 0 0,0 -0.352,-0.145 z m 19.797,0 a 0.491,0.491 0 0,0 -0.352,0.144 l -2.121,2.121 a 0.499,0.499 0 0,0 0,0.707 l 0.707,0.707 a 0.499,0.499 0 0,0 0.707,0 l 2.121,-2.12 a 0.499,0.499 0 0,0 0,-0.708 l -0.707,-0.707 a 0.5,0.5 0 0,0 -0.355,-0.144 z M 24,17 a 7,7 0 0,0 -7,7 a 7,7 0 0,0 7,7 a 7,7 0 0,0 7,-7 a 7,7 0 0,0 -7,-7 z m 0,2 a 5,5 0 0,1 5,5 a 5,5 0 0,1 -5,5 a 5,5 0 0,1 -5,-5 a 5,5 0 0,1 5,-5 z m -14.5,4 c -0.277,0 -0.5,0.223 -0.5,0.5 l 0,1 c 0,0.277 0.223,0.5 0.5,0.5 l 3,0 c 0.277,0 0.5,-0.223 0.5,-0.5 l 0,-1 c 0,-0.277 -0.223,-0.5 -0.5,-0.5 z m 26,0 c -0.277,0 -0.5,0.223 -0.5,0.5 l 0,1 c 0,0.277 0.223,0.5 0.5,0.5 l 3,0 c 0.277,0 0.5,-0.223 0.5,-0.5 l 0,-1 c 0,-0.277 -0.223,-0.5 -0.5,-0.5 z m -19.984,8.277 a 0.504,0.504 0 0,0 -0.356,0.149 l -2.12,2.12 a 0.499,0.499 0 0,0 0,0.708 l 0.706,0.707 a 0.499,0.499 0 0,0 0.707,0 l 2.121,-2.121 a 0.499,0.499 0 0,0 0,-0.707 l -0.707,-0.707 a 0.496,0.496 0 0,0 -0.351,-0.149 z m 16.969,0 a 0.496,0.496 0 0,0 -0.352,0.149 l -0.707,0.707 a 0.499,0.499 0 0,0 0,0.707 l 2.121,2.12 a 0.499,0.499 0 0,0 0.707,0 l 0.707,-0.706 a 0.499,0.499 0 0,0 0,-0.707 l -2.12,-2.121 a 0.505,0.505 0 0,0 -0.356,-0.149 z M 23.5,35 c -0.277,0 -0.5,0.223 -0.5,0.5 l 0,3 c 0,0.277 0.223,0.5 0.5,0.5 l 1,0 c 0.277,0 0.5,-0.223 0.5,-0.5 l 0,-3 c 0,-0.277 -0.223,-0.5 -0.5,-0.5 z" fill="#bebebe"/>
</svg>
