<?xml version="1.0" encoding="UTF-8" standalone="no"?>
<svg xmlns="http://www.w3.org/2000/svg" width="16" height="16" viewBox="0 0 16 16">
  <path d="M 7,0 c -2.015,0 -4,2.026 -4,4 l 0,2 l 10,0 l 0,-2 c 0,-1.995 -1.963,-4 -4,-4 z m 0,2 l 2,0 c 1.158,0 2,1.17 2,2 l 0,2 l -6,0 l 0,-2 c 0,-0.667 0.801,-2 2,-2 z M 2,7 l 0,2.25 l 2.25,0 l 0,0.5 L 2,9.75 l 0,1.5 l 2.25,0 l 0,0.5 L 2,11.75 l 0,1.5 l 2.25,0 l 0,0.5 L 2,13.75 l 0,0.75 c 0,0.831 0.67,1.5 1.5,1.5 l 9,0 c 0.831,0 1.5,-0.669 1.5,-1.5 l 0,-0.75 l -2.25,0 l 0,-0.5 L 14,13.25 l 0,-1.5 l -2.25,0 l 0,-0.5 L 14,11.25 l 0,-1.5 l -2.25,0 l 0,-0.5 L 14,9.25 L 14,7 z" fill="#bebebe"/>
</svg>
