<?xml version="1.0" encoding="UTF-8" standalone="no"?>
<svg xmlns="http://www.w3.org/2000/svg" width="24" height="24" viewBox="0 0 24 24">
  <path d="M 12,4 c -4.423,0 -8,3.576 -8,8 c 0,4.424 3.577,8 8,8 c 4.424,0 8,-3.576 8,-8 c 0,-4.424 -3.576,-8 -8,-8 z m 0,1 c 3.87,0 7,3.13 7,7 s -3.13,7 -7,7 s -7,-3.13 -7,-7 s 3.13,-7 7,-7 z m 0.875,2.063 c -0.989,-0.014 -1.347,1.57 -0.406,1.968 c 0.749,0.277 1.496,-0.495 1.312,-1.25 c -0.00199999999995,-0.00899999999999 0.00199999999995,-0.022 0,-0.031 a 0.88,0.88 0 0,0 -0.906,-0.687 z m -0.187,2.843 a 0.813,0.813 0 0,0 -0.532,0.188 l -2.093,1.5 a 0.195,0.195 0 0,0 -0.063,0.219 a 0.701,0.701 0 0,0 0.281,0.343 c 0.073,0.045 0.161,0.068 0.25,0.031 l 0.875,-0.593 l -0.718,3.718 c -0.081,0.46 -0.00999999999999,0.75 0.25,0.97 a 0.85,0.85 0 0,0 1.031,0.03 l 1.812,-1.25 c 0.066,-0.052 0.1,-0.13 0.063,-0.218 a 1.192,1.192 0 0,0 -0.219,-0.344 c -0.0549999999999,-0.057 -0.143,-0.116 -0.25,-0.094 l -0.75,0.531 c -0.164,0.095 -0.215,0.136 -0.187,0.032 l 0.843,-3.844 c 0.077,-0.347 0.0940000000001,-0.55 0,-0.781 a 0.683,0.683 0 0,0 -0.593,-0.438 z" fill="#bebebe"/>
</svg>
