<?xml version="1.0" encoding="UTF-8" standalone="no"?>
<svg xmlns="http://www.w3.org/2000/svg" width="16" height="16" viewBox="0 0 16 16">
  <path d="M 7.75,4 a 0.25,0.25 0 0,0 -0.25,0.25 l 0,1.5 c 0,0.139 0.112,0.25 0.25,0.25 l 0.5,0 a 0.25,0.25 0 0,0 0.25,-0.25 l 0,-1.5 a 0.25,0.25 0 0,0 -0.25,-0.25 z m 3.735,1.068 a 0.247,0.247 0 0,0 -0.163,0.1 l -0.882,1.213 a 0.25,0.25 0 0,0 0.054,0.35 l 0.405,0.294 a 0.247,0.247 0 0,0 0.347,-0.054 l 0.885,-1.213 a 0.25,0.25 0 0,0 -0.0549999999999,-0.35 l -0.404,-0.295 a 0.253,0.253 0 0,0 -0.187,-0.045 z m -7.061,0.059 a 0.245,0.245 0 0,0 -0.184,0.049 l -0.4,0.3 a 0.249,0.249 0 0,0 -0.049,0.35 l 0.903,1.197 c 0.083,0.111 0.24,0.133 0.351,0.05 l 0.399,-0.302 a 0.249,0.249 0 0,0 0.048,-0.35 l -0.902,-1.196 a 0.252,0.252 0 0,0 -0.166,-0.098 z m -2.408,3.33 a 0.248,0.248 0 0,0 -0.305,0.178 l -0.13,0.482 a 0.25,0.25 0 0,0 0.177,0.307 l 1.45,0.389 a 0.25,0.25 0 0,0 0.306,-0.178 l 0.129,-0.483 a 0.25,0.25 0 0,0 -0.178,-0.306 z m 11.969,0 l -1.45,0.389 a 0.25,0.25 0 0,0 -0.177,0.306 l 0.129,0.483 a 0.25,0.25 0 0,0 0.306,0.178 l 1.45,-0.39 a 0.25,0.25 0 0,0 0.177,-0.306 l -0.13,-0.482 a 0.248,0.248 0 0,0 -0.305,-0.178 z M 5.25,10 a 0.25,0.25 0 0,0 -0.25,0.25 l 0,0.5 c 0,0.139 0.112,0.25 0.25,0.25 l 5.5,0 a 0.25,0.25 0 0,0 0.25,-0.25 l 0,-0.5 a 0.25,0.25 0 0,0 -0.25,-0.25 z" fill="#bebebe"/>
</svg>
