<?xml version="1.0" encoding="UTF-8" standalone="no"?>
<svg xmlns="http://www.w3.org/2000/svg" width="16" height="16" viewBox="0 0 16 16">
  <path d="M 1.99,9.06 a 3.492,3.492 0 0,0 0,4.95 a 3.492,3.492 0 0,0 4.95,0 l 0.353,-0.353 l -0.707,-0.707 l -0.354,0.353 c -0.979,0.98 -2.556,0.98 -3.535,0 a 2.495,2.495 0 0,1 0,-3.535 l 7.07,-7.071 c 0.98,-0.98 2.557,-0.98 3.536,0 c 0.98,0.979 0.98,2.556 0,3.535 l -0.712,0.713 l -2.47,2.47 l -0.207,0.206 l -0.853,0.854 a 1.497,1.497 0 0,1 -2.122,0 a 1.497,1.497 0 0,1 0,-2.121 l 1.061,-1.061 l 0.707,-0.707 l -0.707,-0.707 l -1.768,1.767 c -0.979,0.98 -0.979,2.557 0,3.536 c 0.98,0.98 2.557,0.98 3.536,0 l 0.853,-0.854 l 1.268,-1.267 l 2.122,-2.122 a 3.492,3.492 0 0,0 0,-4.95 a 3.492,3.492 0 0,0 -4.95,0 z" fill="#bebebe"/>
</svg>
