<?xml version="1.0" encoding="UTF-8" standalone="no"?>
<svg xmlns="http://www.w3.org/2000/svg" width="24" height="24" viewBox="0 0 24 24">
  <path d="M 12,5 a 1,1 0 0,0 -1,1 l 0,0.01 c -1.764,0.456 -2.998,2.168 -3,3.99 c 0,0 0,5 -1.66,5.621 c -0.016,0.011 -0.023,0.031 -0.04,0.043 a 0.726,0.726 0 0,0 -0.161,0.176 c -0.018,0.027 -0.039,0.048 -0.053,0.076 a 0.738,0.738 0 0,0 -0.086,0.334 c 0,0.416 0.335,0.75 0.75,0.75 l 10.5,0 c 0.416,0 0.75,-0.334 0.75,-0.75 a 0.738,0.738 0 0,0 -0.086,-0.334 c -0.014,-0.028 -0.035,-0.05 -0.052,-0.076 a 0.725,0.725 0 0,0 -0.162,-0.176 c -0.016,-0.012 -0.023,-0.032 -0.04,-0.043 C 16,15.001 16,10 16,10 c -0.00199999999995,-1.823 -1.235,-3.535 -3,-3.99 L 13,6 a 1,1 0 0,0 -1,-1 z m -1.933,13 A 2,2 0 0,0 12,19.5 a 2,2 0 0,0 1.936,-1.5 z" fill="#bebebe"/>
</svg>
