<?xml version="1.0" encoding="UTF-8" standalone="no"?>
<svg xmlns="http://www.w3.org/2000/svg" width="16" height="16" viewBox="0 0 16 16">
  <path d="M 8,1 c -3.86,0 -7,3.14 -7,7 s 3.14,7 7,7 s 7,-3.14 7,-7 c 0,-1.304 -0.379,-2.513 -1,-3.563 c -1.217,-2.055 -3.444,-3.437 -6,-3.437 z m 0,1 c 1.336,0 2.569,0.454 3.563,1.188 l -4.781,6.03 l -3.063,-2.655 l -1.656,2.218 A 6.132,6.132 0 0,1 2,8 c 0,-3.32 2.68,-6 6,-6 z m 5.344,3.281 A 5.992,5.992 0 0,1 8,14 a 5.97,5.97 0 0,1 -5.906,-5.063 l 5.156,4.438 z" fill="#bebebe"/>
</svg>
