<?xml version="1.0" encoding="UTF-8" standalone="no"?>
<svg xmlns="http://www.w3.org/2000/svg" width="16" height="16" viewBox="0 0 16 16">
  <path d="M 7.9785156,15.998678 A 0.483779,0.48376 0 0,1 7.6152344,15.807272 l -1.84375,-2.429688 l -3.0195313,0.414063 A 0.483779,0.48376 0 0,1 2.2050781,13.246725 L 2.6210938,10.225241 L 0.19140625,8.3834438 a 0.483779,0.48376 0 0,1 0,-0.7714844 L 2.6210938,5.7701622 L 2.2050781,2.7506312 a 0.483779,0.48376 0 0,1 0.546875,-0.546875 l 3.0195313,0.416016 l 1.84375,-2.42968796 a 0.483779,0.48376 0 0,1 0.7695312,0 l 1.8437504,2.42968796 l 3.019531,-0.416016 a 0.483779,0.48376 0 0,1 0.546875,0.546875 l -0.416016,3.019531 l 2.429688,1.8417972 a 0.483779,0.48376 0 0,1 0,0.7714844 l -2.429688,1.8417972 l 0.416016,3.021484 a 0.483779,0.48376 0 0,1 -0.546875,0.544922 l -3.019531,-0.414063 l -1.8437504,2.429688 a 0.483779,0.48376 0 0,1 -0.40625,0.191406 z M 7.40625,11.971334 c 0.031265,0.0029 0.062485,0.0029 0.09375,0 l 1,0 c 0.2717763,-0.01027 0.489733,-0.228223 0.5,-0.5 L 9,7.9713344 l 1.5,0 c 0.369,-0.011 0.606,-0.5235 0.375,-0.8125 L 8.375,4.1588342 C 8.272437,4.0529182 8.1362185,3.9986782 8,3.9986782 c -0.1362185,0 -0.272437,0.054239 -0.375,0.160156 l -2.5,3.0000002 c -0.231,0.289 0.006,0.8015001 0.375,0.8125 L 7,7.9713344 l 0,3.4999996 c 0.00231,0.240905 0.1709498,0.448287 0.40625,0.5 z" fill="#bebebe"/>
</svg>
