<?xml version="1.0" encoding="UTF-8" standalone="no"?>
<svg xmlns="http://www.w3.org/2000/svg" width="16" height="16" viewBox="0 0 16 16">
  <path d="M 5,2 c -2.77,0 -5,2.23 -5,5 s 2.23,5 5,5 l 3.344,0 L 11,15 l 0,-3 c 2.77,0 5,-2.23 5,-5 s -2.23,-5 -5,-5 z m 0,2 l 1,0 c 0.276,0 0.538,0.1 0.719,0.281 L 8,5.562 l 1.281,-1.28 c 0.181,-0.182 0.443,-0.282 0.72,-0.282 l 1,0 l 0,1 c 0,0.276 -0.101,0.538 -0.282,0.719 L 9.438,7 l 1.281,1.281 c 0.18,0.181 0.281,0.443 0.281,0.719 l 0,1 l -1,0 c -0.276,0 -0.538,-0.1 -0.719,-0.281 l -1.28,-1.281 l -1.282,1.28 A 1.015,1.015 0 0,1 6,10 l -1,0 l 0,-1 c 0,-0.276 0.1,-0.538 0.281,-0.719 L 6.563,7 l -1.282,-1.281 a 1.015,1.015 0 0,1 -0.28,-0.719 z" fill="#bebebe"/>
</svg>
