<?xml version="1.0" encoding="UTF-8" standalone="no"?>
<svg xmlns="http://www.w3.org/2000/svg" width="16" height="16" viewBox="0 0 16 16">
  <path d="M 11.25,0 c -1.034,0 -1.905,0.594 -2.375,1.438 l -0.156,-0.157 l -1.156,-0.25 l -0.969,0.969 l 0.688,0.719 l 1,1 L 4,8 l -1,2.438 l 0.5,0.562 l 2.5,-1 l 4.282,-4.281 l 1,1 l 0.718,0.687 l 1.125,-1.125 l -0.406,-1 l -0.156,-0.156 c 0.843,-0.47 1.437,-1.341 1.437,-2.375 a 2.75,2.75 0 0,0 -2.75,-2.75 z m -2.468,4.219 l 1,1 L 7,8 l -2,0 z m -6.125,6.875 s -1.813,2.476 -1.813,3.343 c 0,0.868 0.726,1.563 1.594,1.563 c 0.868,0 1.562,-0.695 1.562,-1.563 c 0,-0.867 -1.343,-3.343 -1.343,-3.343 z" fill="#bebebe"/>
</svg>
