<?xml version="1.0" encoding="UTF-8" standalone="no"?>
<svg xmlns="http://www.w3.org/2000/svg" width="16" height="16" viewBox="0 0 16 16">
  <path d="m 1,1 l 0,1 l 1,0 l 0,-1 z m 2,0 l 0,1 l 1,0 l 0,-1 z m 2,0 l 0,1 l 1,0 l 0,-1 z m 2,0 l 0,1 l 1,0 l 0,-1 z m 2,0 l 0,1 l 1,0 l 0,-1 z m 2,0 l 0,1 l 1,0 l 0,-1 z m 2,0 l 0,1 l 1,0 l 0,-1 z m -12,2 l 0,1 l 1,0 l 0,-1 z m 2,0 l 0,4 l 9,0 l 0,-4 z m 10,0 l 0,1 l 1,0 l 0,-1 z m -12,2 l 0,1 l 1,0 l 0,-1 z m 12,0 l 0,1 l 1,0 l 0,-1 z m -12,2 l 0,1 l 1,0 l 0,-1 z m 12,0 l 0,1 l 1,0 l 0,-1 z m -10,1 l 0,4 l 4,0 l 0,-4 z m 5,0 l 0,4 l 4,0 l 0,-4 z m -7,1 l 0,1 l 1,0 l 0,-1 z m 12,0 l 0,1 l 1,0 l 0,-1 z m -12,2 l 0,1 l 1,0 l 0,-1 z m 12,0 l 0,1 l 1,0 l 0,-1 z m -12,2 l 0,1 l 1,0 l 0,-1 z m 2,0 l 0,1 l 1,0 l 0,-1 z m 2,0 l 0,1 l 1,0 l 0,-1 z m 2,0 l 0,1 l 1,0 l 0,-1 z m 2,0 l 0,1 l 1,0 l 0,-1 z m 2,0 l 0,1 l 1,0 l 0,-1 z m 2,0 l 0,1 l 1,0 l 0,-1 z" fill="#bebebe"/>
</svg>
