<?xml version="1.0" encoding="UTF-8" standalone="no"?>
<svg xmlns="http://www.w3.org/2000/svg" width="24" height="24" viewBox="0 0 24 24">
  <path d="M 9.79,4.001 a 0.754,0.765 0 0,0 -0.363,0.227 l -7.535,7.717 a 0.754,0.765 0 0,0 0.046,1.09 l 7.307,6.717 a 0.754,0.765 0 0,0 0.5,0.227 l 11.484,0 a 0.754,0.765 0 0,0 0.771,-0.772 l 0,-14.434 a 0.754,0.765 0 0,0 -0.771,-0.772 l -11.257,0 a 0.754,0.765 0 0,0 -0.091,0 a 0.754,0.765 0 0,0 -0.09,0 z m 1.952,3.269 l 2.633,2.541 l 2.587,-2.541 l 2.133,2.133 l -2.542,2.587 l 2.542,2.678 l -2.133,2.043 l -2.587,-2.542 l -2.633,2.542 l -2.088,-2.088 l 2.542,-2.633 l -2.542,-2.587 z" fill="#bebebe"/>
</svg>
