<?xml version="1.0" encoding="UTF-8" standalone="no"?>
<svg xmlns="http://www.w3.org/2000/svg" width="16" height="16" viewBox="0 0 16 16">
  <path d="m 6,0 l 0,1 l -2,0 l 0,-1 z m 9,2 l 0,1 l -7,0 l 0,-1 z m -9,0 l 0,1 l -5,0 l 0,-1 z m 9,11 l 0,1 l -7,0 l 0,-1 z m -9,0 l 0,1 l -5,0 l 0,-1 z m 0,2 l 0,1 l -2,0 l 0,-1 z" fill="#bebebe"/>
  <path d="m 6,5 l 0,2 l -6,0 l 0,-2 z m 0,4 l 0,2 l -4,0 l 0,-2 z" fill="#bebebe"/>
  <path d="m 11,12 l 5,-4.016 l -5,-3.984 l 0,2 l -3,0 l 0,4 l 3,0 z" fill="#bebebe"/>
</svg>
