<?xml version="1.0" encoding="UTF-8" standalone="no"?>
<svg xmlns="http://www.w3.org/2000/svg" width="16" height="16" viewBox="0 0 16 16">
  <path d="M 2,8 l 0,1 l 12,0 l 0,-1 z" fill="#bebebe"/>
  <path d="M 4,2 l 0,5 l 2,0 l 0,-3 l 2,0 c 1.918,-0.027 2,1 2,1.5 s -0.082,1.527 -2,1.5 l 3.696,0 c 0.3,-0.617 0.31,-1.299 0.304,-1.5 c 0,-1.5 -1,-3.5 -3,-3.5 l -2,0 z m 0,8 l 0,4 l 5,0 c 2.689,0 3,-2 3,-3.5 a 3.186,3.186 0 0,0 -0.04,-0.5 l -2.02,0 c 0.049,0.185 0.0599999999999,0.362 0.0599999999999,0.5 c 0,0.5 -0.082,1.527 -2,1.5 l -2,0 l 0,-2 z" fill="#bebebe"/>
</svg>
