<?xml version="1.0" encoding="UTF-8" standalone="no"?>
<svg xmlns="http://www.w3.org/2000/svg" width="16" height="16" viewBox="0 0 16 16">
  <path d="M 8,1 c -2.19,0 -4.125,1.021 -5.406,2.594 L 1,2 l 0,5 l 5,0 l -1.969,-1.969 c 0.903,-1.223 2.33,-2.031 3.97,-2.031 a 5,5 0 0,1 0,10 c -1.93,0 -3.573,-1.119 -4.407,-2.719 l -1.875,0.781 C 2.856,13.392 5.234,15 8,15 a 7,7 0 0,0 0,-14 z" fill="#bebebe"/>
  <path d="M 9.5,8 A 1.5,1.5 0 0,1 8,9.5 A 1.5,1.5 0 0,1 6.5,8 A 1.5,1.5 0 0,1 8,6.5 A 1.5,1.5 0 0,1 9.5,8 Z" fill="#bebebe"/>
</svg>
