<?xml version="1.0" encoding="UTF-8" standalone="no"?>
<svg xmlns="http://www.w3.org/2000/svg" width="16" height="16" viewBox="0 0 16 16">
  <path d="M 6.691,2.206 a 0.178,0.178 0 0,0 -0.044,0.249 l 0.476,0.68 c 0.045,0.065 0.034,0.151 -0.016,0.212 l 0,0.001 a 3.903,3.903 0 0,0 -0.735,1.16 a 0.18,0.18 0 0,1 -0.176,0.09 l -0.822,-0.145 a 0.168,0.168 0 0,0 -0.132,0.03 a 0.178,0.178 0 0,0 -0.075,0.116 l -0.186,1.055 a 0.178,0.178 0 0,0 0.145,0.207 l 0.813,0.142 l 0.000999999999976,0.00299999999999 c 0.08,0.016 0.135,0.084 0.144,0.163 l 0,0.00299999999999 c 0.02,0.456 0.116,0.91 0.297,1.343 a 0.183,0.183 0 0,1 -0.056,0.18 l -0.688,0.482 a 0.178,0.178 0 0,0 -0.044,0.249 l 0.615,0.877 c 0.057,0.081 0.168,0.1 0.249,0.044 l 0.682,-0.478 l -0.00700000000001,0.00999999999999 a 0.182,0.182 0 0,1 0.213,0.00800000000001 a 3.9,3.9 0 0,0 1.16,0.734 c 0.064,0.034 0.1,0.1 0.095,0.172 l -0.146,0.83 a 0.178,0.178 0 0,0 0.144,0.207 l 1.055,0.186 a 0.178,0.178 0 0,0 0.207,-0.145 l 0.145,-0.824 l -0.00599999999997,0.016 a 0.183,0.183 0 0,1 0.166,-0.147 c 0.451,-0.02 0.9,-0.118 1.328,-0.296 c 0.071,-0.02 0.148,0 0.195,0.06 l 0.477,0.682 c 0.057,0.08 0.168,0.1 0.249,0.044 l 0.878,-0.615 a 0.178,0.178 0 0,0 0.043,-0.248 l -0.47,-0.672 a 0.182,0.182 0 0,1 0.02,-0.23 c 0.313,-0.346 0.557,-0.739 0.727,-1.16 c 0,0.00399999999999 -0.00599999999997,0.017 -0.00200000000001,0.02 a 0.18,0.18 0 0,1 0.186,-0.1 l 0,0.001 l 0.81,0.144 a 0.178,0.178 0 0,0 0.206,-0.145 l 0.186,-1.055 a 0.18,0.18 0 0,0 -0.144,-0.207 l -0.81,-0.143 a 0.18,0.18 0 0,1 -0.143,-0.174 c 0.00299999999999,0.00700000000001 -0.00200000000001,0.022 -0.00400000000002,0.033 a 3.895,3.895 0 0,0 -0.297,-1.358 c -0.017,-0.074 0,-0.152 0.065,-0.197 l -0.00999999999999,0.006 l 0.682,-0.478 a 0.178,0.178 0 0,0 0.044,-0.248 l -0.614,-0.878 a 0.178,0.178 0 0,0 -0.25,-0.044 l -0.684,0.48 a 0.18,0.18 0 0,1 -0.212,-0.024 a 3.891,3.891 0 0,0 -1.142,-0.724 a 0.184,0.184 0 0,1 -0.1,-0.191 l -0.005,0.013 l 0.146,-0.828 a 0.178,0.178 0 0,0 -0.145,-0.207 l -1.055,-0.186 a 0.174,0.174 0 0,0 -0.133,0.03 a 0.176,0.176 0 0,0 -0.074,0.115 l -0.145,0.824 a 0.182,0.182 0 0,1 -0.168,0.134 l 0,0.001 a 3.895,3.895 0 0,0 -1.324,0.293 c -0.074,0.02 -0.156,0 -0.202,-0.065 l -0.473,-0.675 a 0.179,0.179 0 0,0 -0.249,-0.044 z m 2.487,2.619 a 1.429,1.429 0 0,1 1.99,0.35 a 1.429,1.429 0 0,1 -0.35,1.99 a 1.429,1.429 0 0,1 -1.99,-0.35 a 1.429,1.429 0 0,1 0.35,-1.99 z M 4.544,8.522 a 0.125,0.125 0 0,0 -0.153,0.089 l -0.15,0.56 c -0.015,0.054 -0.067,0.087 -0.122,0.087 l -0.000999999999976,0.001 c -0.328,-0.014 -0.65,0.03 -0.953,0.128 a 0.125,0.125 0 0,1 -0.127,-0.054 l -0.292,-0.506 a 0.122,0.122 0 0,0 -0.076,-0.058 a 0.13,0.13 0 0,0 -0.095,0.012 l -0.65,0.375 a 0.125,0.125 0 0,0 -0.045,0.17 l 0.29,0.5 l 0,0.00299999999999 c 0.028,0.05 0.016,0.11 -0.023,0.15 l 0,0.00200000000001 a 2.726,2.726 0 0,0 -0.587,0.763 a 0.126,0.126 0 0,1 -0.122,0.052 l -0.568,-0.153 a 0.125,0.125 0 0,0 -0.153,0.089 l -0.194,0.724 a 0.125,0.125 0 0,0 0.088,0.153 l 0.563,0.151 l -0.00999999999999,0 a 0.127,0.127 0 0,1 0.09,0.118 c -0.013,0.327 0.032,0.649 0.13,0.952 a 0.126,0.126 0 0,1 -0.05,0.129 l -0.511,0.294 a 0.125,0.125 0 0,0 -0.046,0.171 l 0.375,0.65 c 0.035,0.06 0.11,0.08 0.17,0.045 l 0.508,-0.292 l -0.00200000000001,0.00800000000001 a 0.128,0.128 0 0,1 0.154,0.023 c 0.214,0.233 0.468,0.429 0.756,0.578 c 0.043,0.03 0.067,0.08 0.056,0.132 l -0.15,0.563 a 0.125,0.125 0 0,0 0.088,0.153 l 0.724,0.194 a 0.125,0.125 0 0,0 0.153,-0.089 l 0.149,-0.554 a 0.128,0.128 0 0,1 0.132,-0.093 c 0.327,0.012 0.647,-0.034 0.95,-0.132 c -0.000999999999976,0.00299999999999 -0.013,0.006 -0.013,0.00800000000001 l 0.000999999999976,0 a 0.126,0.126 0 0,1 0.137,0.055 l 0,0.001 l 0.287,0.499 c 0.034,0.06 0.11,0.08 0.17,0.045 l 0.65,-0.375 c 0.06,-0.034 0.08,-0.11 0.045,-0.17 l -0.287,-0.499 a 0.128,0.128 0 0,1 0.028,-0.155 c -0.000999999999976,0.005 -0.014,0.00800000000001 -0.02,0.012 c 0.24,-0.217 0.441,-0.476 0.594,-0.77 a 0.126,0.126 0 0,1 0.135,-0.054 l 0,-0.001 l 0.563,0.15 a 0.125,0.125 0 0,0 0.154,-0.088 l 0.194,-0.724 a 0.125,0.125 0 0,0 -0.089,-0.153 l -0.565,-0.152 a 0.126,0.126 0 0,1 -0.083,-0.124 a 2.727,2.727 0 0,0 -0.126,-0.938 a 0.13,0.13 0 0,1 0.058,-0.14 l -0.011,0.00200000000001 l 0.51,-0.294 c 0.06,-0.034 0.08,-0.11 0.045,-0.17 l -0.375,-0.65 a 0.124,0.124 0 0,0 -0.076,-0.058 a 0.125,0.125 0 0,0 -0.095,0.012 l -0.507,0.293 a 0.127,0.127 0 0,1 -0.148,-0.03 l 0,0.00200000000001 a 2.727,2.727 0 0,0 -0.754,-0.578 l 0,-0.001 a 0.128,0.128 0 0,1 -0.057,-0.138 l 0.15,-0.557 a 0.125,0.125 0 0,0 -0.089,-0.153 z m -0.285,2.512 a 1,1 0 0,1 0.707,1.225 a 1,1 0 0,1 -1.224,0.707 a 1,1 0 0,1 -0.708,-1.225 a 1,1 0 0,1 1.225,-0.707 z" fill="#bebebe"/>
</svg>
