<?xml version="1.0" encoding="UTF-8" standalone="no"?>
<svg xmlns="http://www.w3.org/2000/svg" width="24" height="24" viewBox="0 0 24 24">
  <path d="M 12,5 c -0.554,0 -1,0.446 -1,1 l 0,4 c 0,0.554 0.446,1 1,1 s 1,-0.446 1,-1 l 0,-4 c 0,-0.554 -0.446,-1 -1,-1 z m -3,2 c -0.234,0 -0.456,0.084 -0.625,0.219 a 4.934,4.934 0 0,0 -0.281,0.25 A 5.946,5.946 0 0,0 6,12 a 6,6 0 0,0 12,0 c 0,-1.82 -0.815,-3.435 -2.094,-4.531 a 4.938,4.938 0 0,0 -0.28,-0.25 A 1,1 0 0,0 14,8 c 0,0.311 0.147,0.57 0.374,0.75 c 0.04,0.038 0.054,0.06 0.125,0.125 A 3.95,3.95 0 0,1 16,12 a 4,4 0 0,1 -8,0 a 3.95,3.95 0 0,1 1.5,-3.125 c 0.072,-0.066 0.085,-0.087 0.125,-0.125 A 0.944,0.944 0 0,0 10,8 a 1,1 0 0,0 -1,-1 z" fill="#bebebe"/>
</svg>
