<?xml version="1.0" encoding="UTF-8" standalone="no"?>
<svg xmlns="http://www.w3.org/2000/svg" width="16" height="16" viewBox="0 0 16 16">
  <path d="M 2.934,0 L 3.066,0 A 2.934,2.986 0 0,1 6,2.986 L 6,13.014 A 2.934,2.986 0 0,1 3.066,16 L 2.934,16 A 2.934,2.986 0 0,1 0,13.014 L 0,2.986 A 2.934,2.986 0 0,1 2.934,0 Z" fill="#bebebe"/>
  <path d="M 5.406,0 c 0.878,0.713 1.469,1.792 1.469,3 l 0,1 l 2.125,0 c -0.074,-1.093 1.249,-2 2,-2 c 0.68,0 1,0.011 1,1 l 0,1 l 1.219,0 c 1.228,-0.6 1.78,-1.97 1.78,-2.688 c 0,-0.736 -2.385,-1.312 -3.687,-1.312 z M 7,5 l 0,4.313 c 2.766,2.661 6.125,2.406 6.125,2.406 s 0.353,-1.52 -1.906,-4.031 l -2.375,-2.688 l -1.782,0 c -0.02,0.00200000000001 -0.04,-0.00200000000001 -0.062,0 z m 2.975,2.532 l 1.683,1.737 c -1.799,0.165 -2.15,-0.856 -1.683,-1.737 z" fill="#bebebe"/>
</svg>
