<?xml version="1.0" encoding="UTF-8" standalone="no"?>
<svg xmlns="http://www.w3.org/2000/svg" width="16" height="16" viewBox="0 0 16 16">
  <path d="M 2.5,1 c -0.822,0 -1.5,0.678 -1.5,1.5 l 0,11 c 0,0.822 0.678,1.5 1.5,1.5 l 11,0 c 0.822,0 1.5,-0.678 1.5,-1.5 l 0,-11 c 0,-0.822 -0.678,-1.5 -1.5,-1.5 z m 0,1 l 11,0 c 0.286,0 0.5,0.214 0.5,0.5 l 0,11 c 0,0.286 -0.214,0.5 -0.5,0.5 l -11,0 a 0.488,0.488 0 0,1 -0.5,-0.5 l 0,-11 c 0,-0.286 0.214,-0.5 0.5,-0.5 z m 4.701,2.002 l 0,1.187 l -0.176,0.063 c -0.082,0.03 -0.175,0.075 -0.275,0.123 l -0.168,0.082 l -0.834,-0.832 c 0,-0.00299999999999 -0.00999999999999,-0.00400000000002 -0.0119999999999,-0.00599999999997 c 0,0.00200000000001 -0.011,0.00400000000002 -0.011,0.00599999999997 l -1.1,1.1 c 0.011,-0.011 0.011,0.03 0,0.02 l 0.832,0.835 l -0.082,0.17 c -0.048,0.1 -0.092,0.192 -0.121,0.273 l -0.0650000000001,0.178 L 4,7.201 l 0,1.598 l 1.19,0 l 0.064,0.178 c 0.029,0.08 0.072,0.173 0.121,0.273 l 0.082,0.17 l -0.832,0.836 c 0.011,-0.00999999999999 0.011,0.03 0,0.02 l 1.1,1.099 c -0.011,-0.00999999999999 0.033,-0.00999999999999 0.023,0 l 0.834,-0.832 l 0.168,0.082 c 0.099,0.047 0.193,0.093 0.275,0.123 l 0.176,0.062 l 0,1.188 l 1.6,0 l 0,-1.188 l 0.177,-0.062 c 0.082,-0.03 0.174,-0.075 0.274,-0.123 l 0.172,-0.082 l 0.832,0.832 c -0.011,-0.00999999999999 0.034,-0.00999999999999 0.023,0 l 1.1,-1.1 c -0.0119999999999,0.011 -0.0119999999999,-0.03 0,-0.02 l -0.835,-0.835 l 0.082,-0.17 c 0.048,-0.1 0.092,-0.192 0.122,-0.274 l 0.064,-0.177 L 12,8.799 L 12,7.2 l -1.188,0 l -0.064,-0.178 a 2.75,2.75 0 0,0 -0.12,-0.273 l -0.083,-0.17 l 0.834,-0.836 c -0.00999999999999,0.00999999999999 -0.00999999999999,-0.03 0,-0.02 l -1.1,-1.099 c 0.0119999999999,0.00999999999999 -0.033,0.00999999999999 -0.021,0 l -0.834,0.832 l -0.17,-0.082 c -0.1,-0.048 -0.193,-0.093 -0.276,-0.123 l -0.175,-0.063 l 0,-1.187 z m 0.801,2.666 c 0.733,0 1.332,0.6 1.332,1.332 c 0,0.733 -0.6,1.332 -1.332,1.332 c -0.733,0 -1.334,-0.6 -1.334,-1.332 c 0,-0.733 0.601,-1.332 1.334,-1.332 z" fill="#bebebe"/>
</svg>
