<?xml version="1.0" encoding="UTF-8" standalone="no"?>
<svg xmlns="http://www.w3.org/2000/svg" width="16" height="16" viewBox="0 0 16 16">
  <path d="M 7.892,0.00300000000004 c -2.11,0.03 -4.945,0.802 -4.897,3.28 c 0.05,2.587 2.917,1.662 3.15,2.719 c 0.0359999999999,-0.045 0.0890000000001,-0.082 0.125,-0.125 c 0.198,-0.213 0.395,-0.388 0.593,-0.594 c 0.312,-0.352 0.636,-0.679 0.967,-1.03 c 1.107,-1.179 1.154,-1.25 3.796,-3.25 c -1.035,-0.621 -2.258,-0.966 -3.297,-1 c -0.133,-0.005 -0.296,-0.00200000000001 -0.437,0 z m -1.903,1.531 c 0.827,0 1.498,0.671 1.498,1.5 a 1.499,1.499 0 1,1 -1.498,-1.5 z m 7.27,0.662 c -1.42,2.233 -2.368,3.556 -3.37,4.587 c -0.64,0.658 -1.163,1.312 -1.622,1.781 c -0.84,0.89 -1.938,1.94 -3.15,3.093 c 0.062,1.47 0.81,2.747 3.243,3.218 c 3.898,0.756 8.027,-1.824 7.611,-7.06 c -0.178,-2.249 -1.405,-4.282 -2.713,-5.62 z m 0.342,3.806 a 1,1 0 0,1 0,2 a 1,1 0 0,1 0,-2 z m -0.624,3 a 1,1 0 0,1 0,2 a 1,1 0 0,1 0,-2 z m -4.991,2 a 1,1 0 0,1 0,1.999 a 1,1 0 0,1 0,-2 z m 2.994,0 a 1,1 0 0,1 0,1.999 a 1,1 0 0,1 0,-2 z M 0,13.499 c 1.552,0.000999999999976 1.394,-1.787 2.148,-2.285 c 0.873,-0.577 1.638,0.138 1.791,0.726 c 0.193,0.743 -0.117,1.632 -1.13,1.885 c -1.073,0.268 -2.662,0.276 -2.809,-0.326 z" fill="#bebebe"/>
  <path d="M 14.037,0.00300000000004 c -1.8,1.299 -4.206,3.302 -6.114,5.334 c -0.174,0.184 -0.341,0.362 -0.505,0.547 c -0.103,0.107 -0.212,0.195 -0.315,0.307 c -0.0650000000001,0.077 -0.126,0.163 -0.19,0.24 c -1.872,2.07 -3.719,4.68 -4.916,6.632 c 2.977,-2.297 4.916,-4.164 6.146,-5.47 c 0.24,-0.246 0.53,-0.566 0.851,-0.923 c 1.204,-1.335 2.925,-3.438 5.043,-6.667 z" fill="#bebebe"/>
</svg>
