<?xml version="1.0" encoding="UTF-8" standalone="no"?>
<svg xmlns="http://www.w3.org/2000/svg" width="16" height="16" viewBox="0 0 16 16">
  <path d="M 3.997,1 a 0.5,0.5 0 0,0 -0.5,0.5 a 0.5,0.5 0 0,0 0.5,0.5 l 0,0.00999999999999 a 1.886,2.167 0 0,1 1.483,1.11 a 4,5 0 0,0 -1.266,2.268 a 6.03,5 0 0,0 0.014,0.00999999999999 a 5.364,5.364 0 0,0 -2.745,2.708 c -1.2,2.639 -0.136,5.705 2.377,6.85 a 0.499,0.499 0 0,0 0.662,-0.249 l 0.893,-1.96 a 4,5.25 0 0,0 2.582,1.253 a 4,5.25 0 0,0 2.588,-1.254 l 0.893,1.961 c 0.114,0.252 0.41,0.363 0.662,0.248 c 2.513,-1.144 3.578,-4.21 2.377,-6.85 a 5.365,5.365 0 0,0 -2.746,-2.708 a 6.03,5 0 0,0 0.00800000000004,-0.00400000000002 a 4,5 0 0,0 -1.268,-2.268 a 1.886,2.167 0 0,1 1.486,-1.115 L 11.997,2 a 0.5,0.5 0 0,0 0.5,-0.5 a 0.5,0.5 0 0,0 -0.5,-0.5 a 0.5,0.5 0 0,0 -0.17,0.029 a 2.886,3.167 0 0,0 -2.107,1.463 a 4,5 0 0,0 -1.723,-0.492 a 4,5 0 0,0 -1.72,0.496 a 2.886,3.167 0 0,0 -2.11,-1.467 a 0.5,0.5 0 0,0 -0.17,-0.03 z m 1.553,5.06 a 6.03,5 0 0,0 1.633,0.387 l -2.436,5.351 l -0.906,1.99 c -1.684,-1.056 -2.344,-3.298 -1.447,-5.269 a 4.295,4.295 0 0,1 2.146,-2.152 c 0.0839999999999,-0.039 0.17,-0.067 0.256,-0.1 a 4.15,4.15 0 0,1 0.683,-0.193 l 0.0700000000001,-0.014 z m 4.902,0 l 0.047,0.00799999999998 c 0.273,0.05 0.54,0.13 0.799,0.235 c 0.047,0.019 0.096,0.033 0.142,0.054 a 4.296,4.296 0 0,1 2.166,2.162 c 0.897,1.971 0.237,4.213 -1.447,5.27 l -0.908,-1.996 l -2.434,-5.346 a 6.03,5 0 0,0 1.635,-0.387 z" fill="#bebebe"/>
</svg>
