<?xml version="1.0" encoding="UTF-8" standalone="no"?>
<svg xmlns="http://www.w3.org/2000/svg" width="16" height="16" viewBox="0 0 16 16">
  <path d="M 8,0 C 6.892,0 6,0.892 6,2 L 6,8 C 6,9.108 6.892,10 8,10 L 14,10 C 15.108,10 16,9.108 16,8 L 16,2 C 16,0.892 15.108,0 14,0 L 8,0 z M 10.40234,2 L 11.59766,2 A 0.282164,0.282164 0 0,1 11.86328,2.18945 L 13.83789,7.81055 A 0.141761,0.141761 0 0,1 13.70312,8 L 12.73047,8 A 0.27399,0.27399 0 0,1 12.46875,7.80859 L 12.11133,6.69141 L 9.86914,6.69141 L 9.49609,7.81055 A 0.277216,0.277216 0 0,1 9.23438,8 L 8.29688,8 A 0.141761,0.141761 0 0,1 8.16211,7.81055 L 10.13672,2.18945 A 0.282164,0.282164 0 0,1 10.40234,2 z M 11.00391,3.11133 C 10.78646,3.8563 10.60148,4.468 10.4082,5.08008 L 10.20312,5.70117 L 11.78906,5.70117 L 11.58789,5.08008 C 11.40266,4.468 11.21733,3.8563 11.00391,3.11133 z M 1.96875,6.11133 C 0.86075,6.11133 -0.03125,7.00333 -0.03125,8.11133 L -0.03125,14.11133 C -0.03125,15.21933 0.86075,16.11133 1.96875,16.11133 L 7.96875,16.11133 C 9.07675,16.11133 9.96875,15.21933 9.96875,14.11133 L 9.96875,11 L 8.96875,11 L 8.96875,14.11133 C 8.96875,14.66533 8.52275,15.11133 7.96875,15.11133 L 1.96875,15.11133 C 1.41475,15.11133 0.96875,14.66533 0.96875,14.11133 L 0.96875,8.11133 C 0.96875,7.55733 1.41475,7.11133 1.96875,7.11133 L 5,7.11133 L 5,6.11133 L 1.96875,6.11133 z M 4.06836,7.51562 C 3.95793,7.51265 3.87274,7.60256 3.86914,7.71289 C 3.86114,7.95105 3.82559,8.18661 3.80469,8.42383 C 3.33213,8.42383 2.72119,8.4096 2.20898,8.3418 C 2.09972,8.3273 2.01472,8.40127 2.01758,8.51172 L 2.03125,9.04102 C 2.03425,9.15144 2.12599,9.24631 2.23633,9.25195 C 2.72678,9.27705 3.21807,9.27981 3.70898,9.28711 C 3.67698,9.61511 3.65272,9.95288 3.63672,10.29688 C 2.51672,10.82485 1.66797,11.89576 1.66797,12.92773 C 1.66797,13.73573 2.16405,14.08789 2.74805,14.08789 C 3.17205,14.08789 3.59628,13.95958 3.98828,13.76758 L 4.03125,13.90625 A 0.202335,0.202335 0 0,0 4.2832,14.03711 L 4.82031,13.875 C 4.92598,13.8428 4.98303,13.7321 4.94922,13.62695 C 4.90662,13.49459 4.86581,13.35941 4.82812,13.22461 C 5.43612,12.72061 6.07581,11.88097 6.50781,10.79297 C 7.05981,11.00897 7.33984,11.43211 7.33984,11.91211 C 7.33984,12.66156 6.77009,13.4117 5.37109,13.62305 C 5.26163,13.63955 5.22057,13.72289 5.2793,13.81641 L 5.59375,14.31836 C 5.65255,14.41186 5.78789,14.47529 5.89648,14.45508 C 7.71186,14.11724 8.33203,13.05812 8.33203,11.96094 C 8.33203,11.60785 8.24169,11.28284 8.08008,11 L 8,11 C 7.03436,11 6.18082,10.54627 5.63281,9.8418 C 5.27274,9.85083 4.89809,9.90434 4.54883,9.98438 L 4.60352,9.25586 C 4.81892,9.2471 5.03987,9.23474 5.25977,9.2207 C 5.1439,8.9599 5.06487,8.67898 5.02734,8.38477 C 4.92437,8.39063 4.82223,8.39607 4.7168,8.40039 C 4.7411,8.17144 4.80177,7.94996 4.85938,7.72852 C 4.88705,7.62215 4.81944,7.53379 4.70898,7.53125 L 4.06836,7.51562 z M 5.61914,10.65625 C 5.34714,11.30425 4.99552,11.78378 4.60352,12.17578 C 4.54752,11.77578 4.51562,11.34347 4.51562,10.85547 L 4.51562,10.83203 C 4.82762,10.73603 5.19514,10.66425 5.61914,10.65625 z M 3.61133,11.24805 C 3.62733,11.80005 3.6913,12.35166 3.7793,12.84766 C 3.4913,13.01566 3.20447,13.11133 2.98047,13.11133 C 2.72447,13.11133 2.61133,12.9767 2.61133,12.7207 C 2.61133,12.2647 3.01133,11.65605 3.61133,11.24805 z" fill="#bebebe"/>
</svg>
