<?xml version="1.0" encoding="UTF-8" standalone="no"?>
<svg xmlns="http://www.w3.org/2000/svg" width="16" height="16" viewBox="0 0 16 16">
  <path d="M 8,0 c -4.412,0 -8,3.588 -8,8 s 3.588,8 8,8 s 8,-3.588 8,-8 s -3.588,-8 -8,-8 z m 0,1 c 0.66,0 1.296,0.098 1.9,0.268 l 0.188,0.748 c 0.816,-0.204 1.381,0.116 1.822,0.523 c 0.441,0.407 0.674,0.87 0.674,0.87 l 0.48,-0.237 A 6.97,6.97 0 0,1 15,8 c 0,3.872 -3.128,7 -7,7 s -7,-3.128 -7,-7 a 6.97,6.97 0 0,1 1.935,-4.828 l 0.481,0.236 s 0.231,-0.462 0.672,-0.869 c 0.44,-0.407 1.007,-0.727 1.822,-0.523 l 0.188,-0.748 A 7.011,7.011 0 0,1 8,1 z m -3.02,3.031 c -0.729,0 -1.254,0.339 -1.543,0.674 a 2.01,2.01 0 0,0 -0.388,0.693 c -0.177,0.644 0.788,0.91 0.965,0.266 c 0,0 0.037,-0.142 0.18,-0.307 c 0.142,-0.165 0.34,-0.326 0.786,-0.326 c 0.892,0 1.082,0.676 1.082,0.676 c 0.235,0.625 1.172,0.274 0.938,-0.352 c 0,0 -0.56,-1.324 -2.02,-1.324 z m 6,0 c -0.729,0 -1.254,0.339 -1.543,0.674 a 2.01,2.01 0 0,0 -0.388,0.693 c -0.177,0.644 0.788,0.91 0.965,0.266 c 0,0 0.037,-0.142 0.18,-0.307 c 0.142,-0.165 0.34,-0.326 0.786,-0.326 c 0.892,0 1.082,0.676 1.082,0.676 c 0.235,0.626 1.172,0.274 0.938,-0.352 c 0,0 -0.56,-1.324 -2.02,-1.324 z m -7.918,3.969 c -0.00999999999999,0.144 -0.03,0.312 -0.03,0.459 c 0,3.077 2.238,5.572 5,5.572 c 2.761,0 5,-2.495 5,-5.572 c 0,-0.147 -0.0219999999999,-0.315 -0.0309999999999,-0.459 z m 0.938,1 l 8,0 s 0.0260000000001,0.51 -0.2,1 l -7.569,0.031 c -0.17,-0.188 -0.231,-1.031 -0.231,-1.031 z" fill="#bebebe"/>
</svg>
