<?xml version="1.0" encoding="UTF-8" standalone="no"?>
<svg xmlns="http://www.w3.org/2000/svg" width="24" height="24" viewBox="0 0 24 24">
  <path d="M 12,4 c -4.423,0 -8,3.576 -8,8 c 0,4.424 3.577,8 8,8 c 4.424,0 8,-3.576 8,-8 c 0,-4.424 -3.576,-8 -8,-8 z m 0,1 c 3.87,0 7,3.13 7,7 s -3.13,7 -7,7 s -7,-3.13 -7,-7 s 3.13,-7 7,-7 z m 0.065,1.5 c -0.714,0 -1.282,0.555 -1.282,1.25 s 0.568,1.281 1.281,1.281 c 0.714,0 1.282,-0.586 1.282,-1.281 s -0.568,-1.25 -1.28,-1.25 z m -4.658,2.594 a 0.31,0.31 0 0,0 -0.187,0.0309999999999 a 0.361,0.361 0 0,0 -0.219,0.312 c -0.002,0.135 0.094,0.25 0.22,0.313 l 3.436,1.062 l -0.03,2.47 l -1.22,3.655 c -0.117,0.167 -0.08,0.358 0.094,0.47 c 0.175,0.11 0.446,0.072 0.563,-0.095 l 1.938,-3.936 l 1.938,3.938 a 0.367,0.367 0 0,0 0.5,0.125 c 0.181,-0.1 0.26,-0.297 0.156,-0.47 l -1.188,-3.687 l -0.062,-2.282 l 3.5,-1.25 a 0.368,0.368 0 0,0 0.125,-0.438 c -0.06,-0.152 -0.236,-0.237 -0.32,-0.228 l -4.649,0.76 z" fill="#bebebe"/>
</svg>
