<?xml version="1.0" encoding="UTF-8" standalone="no"?>
<svg xmlns="http://www.w3.org/2000/svg" width="16" height="16" viewBox="0 0 16 16">
  <path d="M 5,1 c -0.554,0 -1,0.446 -1,1 l 0,1 c 0,0.554 0.446,1 1,1 l 1,0 c 0.554,0 1,-0.446 1,-1 l 0,-1 c 0,-0.554 -0.446,-1 -1,-1 z m -0.472,4 l -0.528,0.383 l -1.947,3.894 c -0.335,0.61 0.61,1.08 0.894,0.446 l 1.053,-2.106 l 0.38,-1.125 L 4,10 l 0,5 l 1,0 l 0,-4 l 1,0 l 0,4 l 1,0 l 0,-5 l -0.528,-3.512 l 0.528,1.13 l 1.053,2.105 a 0.5,0.5 0 0,0 0.224,0.224 l 1.723,0.862 L 10,15 l 2,0 l 0,-3.293 l 0.646,0.647 c 0.472,0.49 1.198,-0.236 0.708,-0.708 L 12,10.293 L 12,10 l -1.383,0 l -1.744,-0.873 l -1.873,-3.744 l -0.693,-0.383 z m 5.472,2 l 0,2 l 2,0 l 0,-2 z" fill="#bebebe"/>
</svg>
