<?xml version="1.0" encoding="UTF-8" standalone="no"?>
<svg xmlns="http://www.w3.org/2000/svg" width="16" height="16" viewBox="0 0 16 16">
  <path d="M 12.5,1 a 2.5,2.5 0 0,0 -2.5,2.5 a 2.5,2.5 0 0,0 0.05,0.482 l -4.845,2.694 A 2.5,2.5 0 0,0 3.5,6 a 2.5,2.5 0 0,0 -2.5,2.5 a 2.5,2.5 0 0,0 2.5,2.5 a 2.5,2.5 0 0,0 1.717,-0.684 l 4.834,2.688 a 2.5,2.5 0 0,0 -0.051,0.496 a 2.5,2.5 0 0,0 2.5,2.5 a 2.5,2.5 0 0,0 2.5,-2.5 a 2.5,2.5 0 0,0 -2.5,-2.5 a 2.5,2.5 0 0,0 -1.72,0.688 L 5.946,9 a 2.5,2.5 0 0,0 0.053,-0.5 a 2.5,2.5 0 0,0 -0.057,-0.514 l 4.828,-2.683 a 2.5,2.5 0 0,0 1.729,0.697 a 2.5,2.5 0 0,0 2.5,-2.5 a 2.5,2.5 0 0,0 -2.5,-2.5 z" fill="#bebebe"/>
</svg>
