<?xml version="1.0" encoding="UTF-8" standalone="no"?>
<svg xmlns="http://www.w3.org/2000/svg" width="24" height="24" viewBox="0 0 24 24">
  <path d="M 10,1 c -0.554,0 -1,0.446 -1,1 l 0,12 c 0,0.554 0.446,1 1,1 l 12,0 c 0.554,0 1,-0.446 1,-1 l 0,-12 c 0,-0.554 -0.446,-1 -1,-1 z m 5.27,2.875 l 1.46,0 l 3.075,8.25 l -1.428,0 l -0.863,-2.475 l -3.05,0 l -0.853,2.475 l -1.416,0 z m 0.73,1.363 l -1.254,3.586 l 2.484,0 z M 2,9 c -0.554,0 -1,0.446 -1,1 l 0,12 c 0,0.554 0.446,1 1,1 l 12,0 c 0.554,0 1,-0.446 1,-1 l 0,-6 l -3.018,0 c 0.328,0.458 0.506,0.992 0.506,1.6 c 0,0.974 -0.424,1.795 -1.242,2.402 c -0.64,0.475 -1.506,0.78 -2.586,0.934 a 0.178,0.178 0 0,1 -0.174,-0.08 l -0.484,-0.749 a 0.178,0.178 0 0,1 0.13,-0.273 c 0.911,-0.097 1.627,-0.318 2.15,-0.646 c 0.667,-0.418 0.972,-0.929 0.972,-1.598 c 0,-0.69 -0.284,-1.184 -0.895,-1.55 a 0.178,0.178 0 0,0 -0.002,0 c -0.025,-0.0170000000001 -0.059,-0.025 -0.086,-0.04 l -0.27,0 c -0.259,0 -0.503,-0.052 -0.73,-0.14 c -0.555,1.219 -1.262,2.25 -2.126,3.083 c 0.033,0.306 0.09,0.62 0.175,0.946 a 0.178,0.178 0 0,1 -0.11,0.21 l -0.812,0.303 a 0.178,0.178 0 0,1 -0.238,-0.136 a 37.22,37.22 0 0,1 -0.084,-0.496 c -0.56,0.352 -1.11,0.568 -1.637,0.568 c -0.368,0 -0.68,-0.117 -0.884,-0.358 c -0.205,-0.24 -0.293,-0.577 -0.293,-0.994 c 0,-1.124 0.61,-2.137 1.771,-3.013 a 0.178,0.178 0 0,1 0.004,-0.00199999999995 c 0.204,-0.149 0.485,-0.319 0.81,-0.5 c 0.012,-0.429 0.04,-0.92 0.083,-1.453 c -0.49,0.033 -0.968,0.058 -1.418,0.058 c -0.2,0 -0.358,-0.00199999999995 -0.483,-0.00999999999999 a 0.178,0.178 0 0,1 -0.168,-0.16 l -0.072,-0.787 a 0.178,0.178 0 0,1 0.19,-0.195 c 0.304,0.022 0.603,0.033 0.9,0.033 c 0.395,0 0.77,-0.015 1.137,-0.037 l 0.00700000000001,-0.092 a 0.178,0.178 0 0,0 0,-0.00199999999995 l 0.034,-0.353 c 0.018,-0.19 0.045,-0.417 0.078,-0.684 l 0.033,-0.314 a 0.178,0.178 0 0,1 0.154,-0.162 a 0.178,0.178 0 0,1 0.035,0 l 0.836,0.056 a 0.178,0.178 0 0,1 0.164,0.2 c -0.058,0.467 -0.104,0.867 -0.144,1.247 c 0.262,-0.03 0.525,-0.08 0.787,-0.12 L 8,9 z m 6,4.8 c -0.3,0.043 -0.59,0.092 -0.9,0.126 c -0.033,0.329 -0.054,0.686 -0.069,1.06 a 7.61,7.61 0 0,1 1.115,-0.238 A 1.996,1.996 0 0,1 8,14 z m 0.04,1.95 a 6.198,6.198 0 0,0 -1.054,0.297 c 0.002,0.564 0.018,0.974 0.035,1.369 a 8.463,8.463 0 0,0 1.02,-1.666 z m -2.192,0.963 c -0.166,0.126 -0.33,0.236 -0.508,0.424 a 0.178,0.178 0 0,1 -0.004,0.00400000000002 c -0.569,0.576 -0.857,1.12 -0.897,1.632 l 0,-0.011 c 0,0.037 -0.01,0.076 -0.017,0.113 c 0.008,0.045 0.017,0.09 0.017,0.135 c 0,0.0940000000001 0.024,0.135 0.04,0.152 c 0.015,0.0170000000001 0.036,0.033 0.11,0.033 c 0.396,0 0.842,-0.216 1.337,-0.654 a 29.381,29.381 0 0,1 -0.078,-1.828 z" fill="#bebebe"/>
</svg>
